<svg width="32" height="32" viewBox="0 0 32 32" fill="none" xmlns="http://www.w3.org/2000/svg">
    <path d="M16 32C24.8366 32 32 24.8366 32 16C32 7.16344 24.8366 0 16 0C7.16344 0 0 7.16344 0 16C0 24.8366 7.16344 32 16 32Z" fill="#B7B308"/>
    <path fill-rule="evenodd" clip-rule="evenodd" d="M14.1623 22.6844C14.5778 23.1052 15.2509 23.1052 15.6665 22.6844C16.082 22.2638 16.082 21.5823 15.6665 21.1617L11.6317 17.0769H22.9362C23.5242 17.0769 24 16.5947 24 16C24 15.4053 23.5221 14.9231 22.9362 14.9231H11.6317L15.6665 10.8383C16.082 10.4177 16.082 9.73617 15.6665 9.31551C15.2509 8.89483 14.5778 8.89483 14.1623 9.31551L8.31165 15.2386C7.89612 15.6593 7.89612 16.3407 8.31165 16.7614L14.1623 22.6844Z" fill="white"/>
</svg>
