<svg width="20" height="20" viewBox="0 0 20 20" fill="none" xmlns="http://www.w3.org/2000/svg">
<path fill-rule="evenodd" clip-rule="evenodd" d="M18.1818 10C18.2015 11.711 17.7699 13.1338 16.8029 14.5456C15.8687 15.9792 14.7194 16.9224 13.131 17.559C11.5578 18.232 10.0781 18.3777 8.40381 18.0246C6.72182 17.7101 5.41055 17.0092 4.21458 15.7854C2.99079 14.5894 2.2899 13.2782 1.9754 11.5962C1.62229 9.92188 1.76803 8.44221 2.44099 6.86895C3.07759 5.28064 4.02083 4.1313 5.45443 3.19707C6.86617 2.23011 8.28897 1.7985 10 1.81818C12.17 1.81818 14.251 2.68019 15.7854 4.21458C17.3198 5.74897 18.1818 7.83004 18.1818 10ZM20 10C20 11.9778 19.4135 13.9112 18.3147 15.5557C17.2159 17.2002 15.6541 18.4819 13.8268 19.2388C11.9996 19.9957 9.98891 20.1937 8.0491 19.8078C6.10929 19.422 4.32746 18.4696 2.92894 17.0711C1.53041 15.6725 0.578004 13.8907 0.192152 11.9509C-0.1937 10.0111 0.00433287 8.00042 0.761209 6.17316C1.51809 4.3459 2.79981 2.78412 4.4443 1.6853C6.08879 0.586489 8.02219 0 10 0C12.6522 0 15.1957 1.05357 17.0711 2.92893C18.9464 4.80429 20 7.34783 20 10ZM14.2275 7.06363L11.2912 10L14.2184 12.9455C14.3674 13.1194 14.4452 13.3431 14.4364 13.5719C14.4275 13.8007 14.3327 14.0177 14.1708 14.1796C14.0089 14.3415 13.7918 14.4364 13.563 14.4452C13.3342 14.454 13.1105 14.3762 12.9366 14.2273L10.0003 11.2909L7.06389 14.2273C6.9824 14.3224 6.88211 14.3997 6.76932 14.4543C6.65654 14.5089 6.53369 14.5395 6.40849 14.5444C6.28329 14.5492 6.15844 14.5281 6.04178 14.4824C5.92512 14.4367 5.81917 14.3674 5.73058 14.2788C5.64198 14.1902 5.57266 14.0842 5.52695 13.9676C5.48125 13.8509 5.46015 13.7261 5.46499 13.6009C5.46982 13.4757 5.50049 13.3528 5.55505 13.24C5.60962 13.1272 5.68691 13.0269 5.78208 12.9455L8.71844 10L5.78208 7.07272C5.69731 6.98856 5.62996 6.88852 5.58386 6.77833C5.53776 6.66813 5.51381 6.54993 5.51339 6.43048C5.51297 6.31103 5.53608 6.19267 5.5814 6.08215C5.62672 5.97163 5.69337 5.87112 5.77753 5.78636C5.8617 5.7016 5.96173 5.63424 6.07193 5.58814C6.18212 5.54204 6.30032 5.5181 6.41977 5.51767C6.53922 5.51725 6.65758 5.54036 6.7681 5.58568C6.87862 5.631 6.97913 5.69765 7.06389 5.78182L10.0003 8.71818L12.9457 5.78182C13.0272 5.68665 13.1275 5.60936 13.2403 5.55479C13.3531 5.50023 13.4759 5.46956 13.6011 5.46473C13.7263 5.45989 13.8512 5.48099 13.9678 5.52669C14.0845 5.57239 14.1904 5.64172 14.279 5.73032C14.3676 5.81891 14.4369 5.92486 14.4827 6.04152C14.5284 6.15818 14.5495 6.28303 14.5446 6.40823C14.5398 6.53343 14.5091 6.65628 14.4546 6.76906C14.4 6.88185 14.3227 6.98214 14.2275 7.06363Z" fill="white"/>
</svg>
