<svg class="my-auto mx-auto tablet:ml-auto  tablet:mx-0" width="56" height="40" viewBox="0 0 56 40"
     fill="none" xmlns="http://www.w3.org/2000/svg">
    <path
        d="M10.0615 39.7783V37.1296C10.128 36.2644 9.42563 35.5139 8.49074 35.4521C8.41956 35.4477 8.34837 35.4477 8.27719 35.4521C7.63653 35.4124 7.02909 35.6993 6.68266 36.2026C6.36945 35.717 5.79523 35.4256 5.18305 35.4521C4.65154 35.4256 4.1485 35.664 3.85428 36.079V35.5581H2.86719V39.7783H3.86377V37.4563C3.78309 36.9133 4.19121 36.4145 4.77492 36.3438C4.84136 36.335 4.9078 36.3306 4.97424 36.335C5.62913 36.335 5.96133 36.7323 5.96133 37.4475V39.7959H6.95791V37.4563C6.88198 36.9133 7.29485 36.4145 7.87856 36.3438C7.94025 36.335 8.00669 36.335 8.06838 36.335C8.74226 36.335 9.06496 36.7323 9.06496 37.4475V39.7959L10.0615 39.7783ZM24.8062 35.5581H23.1832V34.2779H22.1866V35.5581H21.2849V36.3968H22.2056V38.3392C22.2056 39.3192 22.6137 39.9019 23.7811 39.9019C24.2177 39.9019 24.6448 39.7915 25.015 39.5752L24.7302 38.7894C24.4645 38.9351 24.1655 39.019 23.857 39.0278C23.3825 39.0278 23.2021 38.7453 23.2021 38.3215V36.3968H24.8157L24.8062 35.5581ZM33.2249 35.4521C32.7361 35.4389 32.2758 35.6773 32.029 36.0701V35.5581H31.0514V39.7783H32.0385V37.4121C32.0385 36.7147 32.3612 36.3262 32.9876 36.3262C33.1964 36.3218 33.41 36.3615 33.6045 36.4321L33.9082 35.5492C33.6805 35.4742 33.4432 35.4345 33.2059 35.4345L33.2249 35.4521ZM20.4971 35.8936C19.9372 35.5846 19.2965 35.43 18.6464 35.4521C17.4979 35.4521 16.7481 35.9642 16.7481 36.8029C16.7481 37.4916 17.2986 37.9154 18.3142 38.0478L18.7887 38.1096C19.3297 38.1803 19.586 38.3127 19.586 38.5511C19.586 38.8777 19.2253 39.0631 18.5514 39.0631C18.0104 39.0764 17.4789 38.9219 17.0423 38.6217L16.5678 39.3368C17.142 39.7121 17.8301 39.9019 18.5325 39.8842C19.8422 39.8842 20.6015 39.3104 20.6015 38.5069C20.6015 37.7035 20.0036 37.3768 19.0165 37.2444L18.5419 37.1826C18.1148 37.1296 17.7732 37.0502 17.7732 36.7676C17.7732 36.4851 18.0959 36.2732 18.6369 36.2732C19.1352 36.2776 19.6287 36.4012 20.0605 36.6352L20.4971 35.8936ZM46.935 35.4521C46.4462 35.4389 45.9858 35.6773 45.7391 36.0701V35.5581H44.7615V39.7783H45.7486V37.4121C45.7486 36.7147 46.0713 36.3262 46.6977 36.3262C46.9065 36.3218 47.12 36.3615 47.3146 36.4321L47.6183 35.5492C47.3905 35.4742 47.1533 35.4345 46.916 35.4345L46.935 35.4521ZM34.2167 37.6593C34.1693 38.838 35.1563 39.8268 36.4234 39.8666C36.4946 39.871 36.5658 39.8666 36.637 39.8666C37.2302 39.8931 37.8139 39.7165 38.2695 39.3633L37.7949 38.6217C37.4532 38.8645 37.0356 38.9969 36.6085 39.0013C35.8065 38.9395 35.2085 38.2862 35.275 37.5402C35.3319 36.878 35.8967 36.3527 36.6085 36.2997C37.0356 36.3041 37.4532 36.4365 37.7949 36.6793L38.2695 35.9377C37.8139 35.5846 37.2302 35.408 36.637 35.4345C35.3746 35.3682 34.2926 36.2688 34.2167 37.443C34.212 37.5093 34.212 37.5755 34.2167 37.6417V37.6593ZM43.4612 37.6593V35.5581H42.4741V36.0701C42.1324 35.664 41.6056 35.4345 41.0504 35.4521C39.7406 35.4521 38.6776 36.441 38.6776 37.6593C38.6776 38.8777 39.7406 39.8666 41.0504 39.8666C41.6056 39.8842 42.1324 39.6547 42.4741 39.2486V39.7606H43.4612V37.6593ZM39.7881 37.6593C39.8308 36.9574 40.4809 36.4189 41.2402 36.463C41.9995 36.5072 42.5737 37.1075 42.5263 37.8139C42.4836 38.4849 41.8856 39.0102 41.1643 39.0146C40.4145 39.0234 39.7928 38.4628 39.7833 37.7653C39.7833 37.7256 39.7833 37.6947 39.7881 37.6593ZM27.8766 35.4521C26.5668 35.4698 25.518 36.4719 25.537 37.6902C25.556 38.9086 26.6332 39.8842 27.943 39.8666C28.6264 39.8975 29.2955 39.6944 29.827 39.2927L29.3525 38.6129C28.9776 38.891 28.5125 39.0499 28.0332 39.0543C27.3546 39.1073 26.7519 38.6526 26.6759 38.0213H30.0453C30.0453 37.9066 30.0453 37.7918 30.0453 37.6682C30.0453 36.3438 29.1626 35.4609 27.8908 35.4609L27.8766 35.4521ZM27.8766 36.2732C28.4982 36.26 29.0108 36.7191 29.025 37.2974H26.6522C26.6902 36.7058 27.2217 36.2511 27.8576 36.2732H27.8766ZM52.606 37.6682V33.8629H51.6568V36.0701C51.3152 35.664 50.7884 35.4345 50.2332 35.4521C48.9234 35.4521 47.8603 36.441 47.8603 37.6593C47.8603 38.8777 48.9234 39.8666 50.2332 39.8666C50.7884 39.8842 51.3152 39.6547 51.6568 39.2486V39.7606H52.606V37.6682ZM54.2527 39.1647C54.3144 39.1647 54.3761 39.1735 54.433 39.1956C54.4852 39.2176 54.5374 39.2441 54.5801 39.2839C54.6228 39.3236 54.6561 39.3677 54.6798 39.4163C54.7273 39.5222 54.7273 39.637 54.6798 39.743C54.6561 39.7915 54.6228 39.8357 54.5801 39.8754C54.5374 39.9151 54.4852 39.9416 54.433 39.9637C54.3761 39.9858 54.3144 39.999 54.2527 39.999C54.0676 39.999 53.9015 39.8975 53.8256 39.743C53.7781 39.637 53.7781 39.5222 53.8256 39.4163C53.8493 39.3677 53.8825 39.3236 53.9252 39.2839C53.968 39.2441 54.0202 39.2176 54.0724 39.1956C54.1341 39.1735 54.2005 39.1603 54.2669 39.1647H54.2527ZM54.2527 39.9107C54.3001 39.9107 54.3476 39.9019 54.3903 39.8842C54.433 39.8666 54.4662 39.8445 54.4995 39.8136C54.6228 39.69 54.6228 39.4958 54.4995 39.3722C54.4662 39.3413 54.433 39.3192 54.3903 39.3015C54.3476 39.2839 54.3001 39.275 54.2527 39.275C54.2052 39.275 54.1578 39.2839 54.1151 39.3015C54.0724 39.3192 54.0344 39.3413 54.0012 39.3722C53.8778 39.4958 53.8778 39.69 54.0012 39.8136C54.0344 39.8445 54.0724 39.8666 54.1151 39.8842C54.1625 39.9019 54.2147 39.9107 54.2669 39.9107H54.2527ZM54.2812 39.3854C54.3239 39.3854 54.3713 39.3942 54.4046 39.4207C54.433 39.4428 54.452 39.4781 54.4473 39.5134C54.4473 39.5443 54.4378 39.5708 54.414 39.5929C54.3856 39.615 54.3523 39.6282 54.3144 39.6326L54.452 39.7783H54.3429L54.2147 39.6326H54.172V39.7783H54.0818V39.3898L54.2812 39.3854ZM54.1768 39.4604V39.5664H54.2812C54.3001 39.5708 54.3191 39.5708 54.3381 39.5664C54.3429 39.5531 54.3429 39.5399 54.3381 39.5267C54.3429 39.5134 54.3429 39.5002 54.3381 39.4869C54.3191 39.4825 54.3001 39.4825 54.2812 39.4869L54.1768 39.4604ZM48.9566 37.6682C48.9993 36.9663 49.6494 36.4277 50.4087 36.4719C51.168 36.516 51.7423 37.1164 51.6948 37.8227C51.6521 38.4937 51.0541 39.019 50.3328 39.0234C49.583 39.0322 48.9613 38.4716 48.9518 37.7741C48.9518 37.7344 48.9518 37.7035 48.9566 37.6682ZM15.6281 37.6682V35.5581H14.6411V36.0701C14.2994 35.664 13.7726 35.4345 13.2174 35.4521C11.9076 35.4521 10.8446 36.441 10.8446 37.6593C10.8446 38.8777 11.9076 39.8666 13.2174 39.8666C13.7726 39.8842 14.2994 39.6547 14.6411 39.2486V39.7606H15.6281V37.6682ZM11.955 37.6682C11.9977 36.9663 12.6479 36.4277 13.4072 36.4719C14.1665 36.516 14.7407 37.1164 14.6933 37.8227C14.6505 38.4937 14.0526 39.019 13.3313 39.0234C12.5815 39.0367 11.9598 38.4804 11.9408 37.783C11.9408 37.7476 11.9408 37.7123 11.9455 37.6726H11.955V37.6682Z"
        fill="white"/>
    <path
        d="M29.8317 7.09811C29.1816 6.32999 28.446 5.62368 27.644 4.99683C24.1655 7.7073 22.1818 11.6538 22.1865 15.8961C22.1818 20.1384 24.1655 24.0849 27.644 26.791C33.9319 21.8821 34.938 13.1459 29.8317 7.09811Z"
        fill="white"/>
    <path
        d="M21.1189 15.8977C21.1094 11.0197 23.5202 6.411 27.6441 3.40034C20.222 -2.02061 9.48266 -0.824297 3.65505 6.0755C-2.17731 12.9753 -0.886503 22.9652 6.53089 28.3906C12.7287 32.9198 21.4464 32.9198 27.6441 28.3906C23.5202 25.3799 21.1142 20.7756 21.1189 15.8977Z"
        fill="white"/>
    <path
        d="M51.6326 6.06952C45.8003 -0.830277 35.0609 -2.02659 27.6436 3.39877C28.7113 4.18013 29.6794 5.08068 30.5194 6.07393C36.3518 12.9737 35.0609 22.9636 27.6436 28.389C30.6523 30.5918 34.3728 31.7881 38.2025 31.7881C47.6368 31.7881 55.2867 24.672 55.2867 15.8961V15.8917C55.2867 12.3292 53.9959 8.8727 51.6326 6.06952Z"
        fill="white"/>
    <path
        d="M53.6542 25.7405V25.2284H53.8772V25.1224H53.3125V25.2284H53.5545V25.7405H53.6542ZM54.7504 25.7405V25.1224H54.5796L54.3803 25.5639L54.181 25.1224H54.0291V25.7405H54.1525V25.2769L54.3376 25.6787H54.4657L54.6508 25.2769V25.7449L54.7504 25.7405Z"
        fill="white"/>
</svg>
