<svg width="27" height="20" viewBox="0 0 27 20" fill="none" xmlns="http://www.w3.org/2000/svg">
    <path fill-rule="evenodd" clip-rule="evenodd"
          d="M10.7123 13.3417L10.7114 5.92053L18.0065 9.64392L10.7123 13.3417V13.3417ZM26.73 4.63454C26.73 4.63454 26.4659 2.81453 25.6567 2.01306C24.6299 0.960665 23.479 0.955706 22.9517 0.894625C19.1734 0.627193 13.5059 0.627197 13.5059 0.627197H13.4941C13.4941 0.627197 7.82663 0.627193 4.04832 0.894625C3.52013 0.955704 2.3701 0.960665 1.34241 2.01306C0.533253 2.81452 0.269998 4.63454 0.269998 4.63454C0.269998 4.63454 0 6.77233 0 8.90931V10.9134C0 13.0512 0.269998 15.1882 0.269998 15.1882C0.269998 15.1882 0.533253 17.0082 1.34241 17.8096C2.3701 18.862 3.71925 18.829 4.32 18.9388C6.48 19.1418 13.5 19.2046 13.5 19.2046C13.5 19.2046 19.1734 19.1963 22.9517 18.9289C23.479 18.867 24.6299 18.862 25.6567 17.8096C26.4659 17.0082 26.73 15.1882 26.73 15.1882C26.73 15.1882 27 13.0512 27 10.9134V8.90931C27 6.77233 26.73 4.63454 26.73 4.63454Z"
          fill="white"/>
</svg>
