<svg width="19" height="20" viewBox="0 0 19 20" fill="none" xmlns="http://www.w3.org/2000/svg">
    <path fill-rule="evenodd" clip-rule="evenodd"
          d="M9.50002 0.627197C6.91996 0.627197 6.59645 0.638118 5.58317 0.68429C4.57201 0.730349 3.88141 0.890744 3.27714 1.12529C2.65243 1.36772 2.12264 1.69213 1.59447 2.21956C1.06634 2.74704 0.741495 3.27613 0.498754 3.90002C0.263894 4.50349 0.103293 5.19317 0.057174 6.20301C0.0109411 7.21495 0 7.53804 0 10.1147C0 12.6913 0.0109411 13.0144 0.057174 14.0264C0.103293 15.0362 0.263894 15.7259 0.498754 16.3294C0.741495 16.9532 1.06634 17.4823 1.59447 18.0098C2.12264 18.5373 2.65243 18.8617 3.27714 19.1041C3.88141 19.3386 4.57201 19.499 5.58317 19.5451C6.59645 19.5913 6.91996 19.6022 9.50002 19.6022C12.0801 19.6022 12.4036 19.5913 13.4168 19.5451C14.428 19.499 15.1186 19.3386 15.7229 19.1041C16.3476 18.8617 16.8774 18.5373 17.4055 18.0098C17.9337 17.4823 18.2585 16.9532 18.5013 16.3294C18.7361 15.7259 18.8967 15.0362 18.9428 14.0264C18.9891 13.0144 19 12.6913 19 10.1147C19 7.53804 18.9891 7.21495 18.9428 6.20301C18.8967 5.19317 18.7361 4.50349 18.5013 3.90002C18.2585 3.27613 17.9337 2.74704 17.4055 2.21956C16.8774 1.69213 16.3476 1.36772 15.7229 1.12529C15.1186 0.890744 14.428 0.730349 13.4168 0.68429C12.4036 0.638118 12.0801 0.627197 9.50002 0.627197ZM9.50002 2.33665C12.0366 2.33665 12.3371 2.34633 13.3388 2.39198C14.2651 2.43415 14.7681 2.58871 15.1028 2.71864C15.5463 2.89075 15.8627 3.09634 16.1952 3.42836C16.5276 3.76034 16.7334 4.07639 16.9058 4.51924C17.0359 4.85355 17.1906 5.35591 17.2329 6.28093C17.2786 7.28135 17.2883 7.58143 17.2883 10.1147C17.2883 12.648 17.2786 12.948 17.2329 13.9485C17.1906 14.8735 17.0359 15.3758 16.9058 15.7101C16.7334 16.153 16.5276 16.469 16.1952 16.801C15.8627 17.133 15.5463 17.3386 15.1028 17.5107C14.7681 17.6407 14.2651 17.7952 13.3388 17.8374C12.3372 17.883 12.0368 17.8927 9.50002 17.8927C6.96321 17.8927 6.66281 17.883 5.66119 17.8374C4.73494 17.7952 4.23193 17.6407 3.89717 17.5107C3.45374 17.3386 3.13727 17.133 2.80485 16.801C2.47243 16.469 2.26654 16.153 2.0942 15.7101C1.9641 15.3758 1.80934 14.8735 1.7671 13.9485C1.7214 12.948 1.71171 12.648 1.71171 10.1147C1.71171 7.58143 1.7214 7.28135 1.7671 6.28093C1.80934 5.35591 1.9641 4.85355 2.0942 4.51924C2.26654 4.07639 2.4724 3.76034 2.80485 3.42836C3.13727 3.09634 3.45374 2.89075 3.89717 2.71864C4.23193 2.58871 4.73494 2.43415 5.66119 2.39198C6.66292 2.34633 6.9634 2.33665 9.50002 2.33665ZM9.50002 5.24274C6.80574 5.24274 4.62163 7.42397 4.62163 10.1147C4.62163 12.8054 6.80574 14.9866 9.50002 14.9866C12.1943 14.9866 14.3784 12.8054 14.3784 10.1147C14.3784 7.42397 12.1943 5.24274 9.50002 5.24274ZM9.50002 13.2772C7.7511 13.2772 6.33333 11.8613 6.33333 10.1147C6.33333 8.36808 7.7511 6.95219 9.50002 6.95219C11.2489 6.95219 12.6667 8.36808 12.6667 10.1147C12.6667 11.8613 11.2489 13.2772 9.50002 13.2772ZM15.7111 5.05025C15.7111 5.67904 15.2007 6.18874 14.5711 6.18874C13.9415 6.18874 13.4311 5.67904 13.4311 5.05025C13.4311 4.42147 13.9415 3.91173 14.5711 3.91173C15.2007 3.91173 15.7111 4.42147 15.7111 5.05025Z"
          fill="white"/>
</svg>
