<svg width="24" height="19" viewBox="0 0 24 19" fill="none" xmlns="http://www.w3.org/2000/svg">
    <path
        d="M8.08899 18.5989C7.43838 18.5989 7.54894 18.346 7.32455 17.7084L6.52832 10.927C15.2374 4.72871 19.8289 2.28193 20.3028 3.58672C20.7768 4.89151 16.7055 9.89556 8.08899 18.5989Z"
        fill="#C8DAEA"/>
    <path
        d="M7.70312 18.5993C8.37255 18.5993 8.66832 18.3057 9.04197 17.9574L12.6122 14.6287L9.52299 12.4439"
        fill="#A9C9DD"/>
    <path
        d="M9.47476 12.4789L17.9648 18.3549C18.9336 18.8557 19.6328 18.5964 19.8741 17.5123L23.33 2.25657C23.6838 0.927708 22.7893 0.324998 21.8624 0.719174L1.56965 8.04929C0.184474 8.56975 0.192551 9.29368 1.31716 9.61626L6.52475 11.1389L18.5809 4.01367C19.15 3.69036 19.6724 3.86418 19.2436 4.22063"
        fill="url(#paint0_linear)"/>
    <defs>
        <linearGradient id="paint0_linear" x1="15.6131" y1="8.89891" x2="18.8382" y2="13.7353"
                        gradientUnits="userSpaceOnUse">
            <stop stop-color="#EFF7FC"/>
            <stop offset="1" stop-color="white"/>
        </linearGradient>
    </defs>
</svg>
