<svg class="my-auto tablet:mx-0" width="51" height="33" viewBox="0 0 51 33" fill="none"
     xmlns="http://www.w3.org/2000/svg">
    <path
        d="M47.3494 1.59501L47.3493 1.59501C47.2146 1.59134 47.0795 1.58985 46.9414 1.58887C46.9409 1.58887 46.9405 1.58887 46.9401 1.58886L46.4286 1.58789H46.4282H4.56709H4.5666L4.05211 1.5889C3.91514 1.58985 3.78011 1.59134 3.6462 1.59498L3.64615 1.59498C3.40462 1.60152 3.15118 1.61422 2.92477 1.65488L47.3494 1.59501ZM47.3494 1.59501C47.5901 1.60151 47.8435 1.61424 48.07 1.65481C48.2591 1.68888 48.4055 1.73807 48.543 1.80804L48.5433 1.80822M47.3494 1.59501L48.5433 1.80822M48.5433 1.80822C48.6796 1.87744 48.8051 1.96846 48.9152 2.07832C49.0259 2.18919 49.1174 2.31522 49.1882 2.45416L49.1884 2.45453M48.5433 1.80822L49.1884 2.45453M49.1884 2.45453C49.2574 2.58983 49.3062 2.73483 49.34 2.9255L49.3403 2.92695M49.1884 2.45453L49.3403 2.92695M49.3403 2.92695C49.3806 3.14993 49.3933 3.40347 49.3999 3.64646M49.3403 2.92695L49.406 4.05581M49.406 4.05581L49.406 4.05435C49.4054 3.91523 49.4036 3.78047 49.3999 3.64646M49.406 4.05581C49.4073 4.22224 49.4073 4.38887 49.4073 4.55817V4.56693V28.0799V28.0885C49.4073 28.2578 49.4073 28.4243 49.406 28.5944L49.406 28.5959M49.406 4.05581L49.406 28.5959M49.3999 3.64646L49.8997 3.63292M49.3999 3.64646C49.3999 3.64649 49.3999 3.64651 49.3999 3.64654L49.8997 3.63292M49.8997 3.63292C49.8931 3.3874 49.8799 3.10118 49.8323 2.83801L49.906 4.05196C49.9053 3.91008 49.9035 3.7715 49.8997 3.63292ZM49.406 28.5959C49.4054 28.7316 49.4036 28.8663 49.3999 29.0005L49.3999 29.0006M49.406 28.5959L49.3999 29.0006M49.3999 29.0006C49.3933 29.2429 49.3806 29.4965 49.3397 29.7227L49.3395 29.7242M49.3999 29.0006L49.3395 29.7242M49.3395 29.7242C49.3062 29.9112 49.2576 30.0563 49.1879 30.1928L49.1876 30.1933M49.3395 29.7242L49.1876 30.1933M49.1876 30.1933C49.1171 30.3319 49.0259 30.4575 48.9161 30.5672L48.916 30.5673M49.1876 30.1933L48.916 30.5673M48.916 30.5673C48.8052 30.6782 48.6803 30.7689 48.542 30.839L48.5407 30.8396M48.916 30.5673L48.5407 30.8396M48.5407 30.8396C48.4048 30.909 48.2589 30.958 48.0722 30.9916C47.8406 31.0329 47.5759 31.0457 47.3554 31.0517C47.2179 31.0548 47.0809 31.0566 46.9405 31.0573L46.9391 31.0573M48.5407 30.8396L46.9391 31.0573M46.9391 31.0573C46.7701 31.0586 46.6003 31.0586 46.4286 31.0586H4.5666H4.56657H4.56654H4.56651H4.56649H4.56646H4.56643H4.56641H4.56638H4.56635H4.56633H4.5663H4.56627H4.56625H4.56622H4.5662H4.56617H4.56614H4.56611H4.56609H4.56606H4.56604H4.56601H4.56598H4.56596H4.56593H4.5659H4.56588H4.56585H4.56582H4.5658H4.56577H4.56574H4.56572H4.56569H4.56566H4.56564H4.56561H4.56558H4.56556H4.56553H4.5655H4.56548H4.56545H4.56542H4.5654H4.56537H4.56534H4.56532H4.56529H4.56526H4.56524H4.56521H4.56519H4.56516H4.56513H4.56511H4.56508H4.56505H4.56503H4.565H4.56497H4.56495H4.56492H4.56489H4.56487H4.56484H4.56481H4.56479H4.56476H4.56474H4.56471H4.56468H4.56466H4.56463H4.5646H4.56458H4.56455H4.56452H4.5645H4.56447H4.56444H4.56442H4.56439H4.56437H4.56434H4.56431H4.56429H4.56426H4.56423H4.56421H4.56418H4.56415H4.56413H4.5641H4.56407H4.56405H4.56402H4.564H4.56397H4.56394H4.56392H4.56389H4.56386H4.56384H4.56381H4.56378H4.56376H4.56373H4.5637H4.56368H4.56365H4.56363H4.5636H4.56357H4.56355H4.56352H4.56349H4.56347H4.56344H4.56341H4.56339H4.56336H4.56333H4.56331H4.56328H4.56326H4.56323H4.5632H4.56318H4.56315H4.56312H4.5631H4.56307H4.56304H4.56302H4.56299H4.56296H4.56294H4.56291H4.56288H4.56286H4.56283H4.56281H4.56278H4.56275H4.56273H4.5627H4.56267H4.56265H4.56262H4.56259H4.56257H4.56254H4.56251H4.56249H4.56246H4.56243H4.56241H4.56238H4.56235H4.56233H4.5623H4.56228H4.56225H4.56222H4.5622H4.56217H4.56214H4.56212H4.56209H4.56206H4.56204H4.56201H4.56198H4.56196H4.56193H4.5619H4.56188H4.56185H4.56182H4.5618H4.56177H4.56174H4.56172H4.56169H4.56166H4.56164H4.56161H4.56158H4.56156H4.56153H4.5615H4.56148H4.56145H4.56142H4.5614H4.56137H4.56134H4.56132H4.56129H4.56126H4.56124H4.56121H4.56118H4.56116H4.56113H4.5611H4.56108H4.56105H4.56102H4.561H4.56097H4.56094H4.56092H4.56089H4.56086H4.56084H4.56081H4.56078H4.56076H4.56073H4.5607H4.56068H4.56065H4.56062H4.56059H4.56057H4.56054H4.56051H4.56049H4.56046H4.56043H4.56041H4.56038H4.56035H4.56033H4.5603H4.56027H4.56025H4.56022H4.56019H4.56016H4.56014H4.56011H4.56008H4.56006H4.56003H4.56H4.55998H4.55995H4.55992H4.55989H4.55987H4.55984H4.55981H4.55979C4.39022 31.0586 4.22252 31.0586 4.05241 31.0573L4.05088 31.0573M46.9391 31.0573L4.05088 31.0573M4.05088 31.0573C3.91361 31.0566 3.7768 31.0548 3.64475 31.0518C3.41854 31.0457 3.15355 31.0328 2.92427 30.9919L2.83635 31.4841L2.92483 30.992C2.73631 30.9581 2.5903 30.9091 2.45183 30.8384L2.45068 30.8378M4.05088 31.0573L2.45068 30.8378M2.45068 30.8378C2.31422 30.7686 2.18951 30.6782 2.07857 30.567L2.07797 30.5664M2.45068 30.8378L2.07797 30.5664M2.07797 30.5664C1.96864 30.4573 1.87787 30.3323 1.80743 30.1937L1.80725 30.1933M2.07797 30.5664L1.80725 30.1933M1.80725 30.1933C1.73779 30.0569 1.68878 29.911 1.65479 29.7206L1.65461 29.7197M1.80725 30.1933L1.65461 29.7197M1.65461 29.7197C1.61382 29.4938 1.60112 29.2412 1.59461 29.0009L1.65461 29.7197ZM1.58792 28.0799V28.08L1.58789 28.1875L1.58789 28.188L1.58856 28.5938C1.58856 28.5942 1.58856 28.5946 1.58857 28.595C1.58945 28.7318 1.591 28.8668 1.59461 29.0009L1.58792 28.0799ZM1.58792 28.0799V4.56693L1.58792 4.56679M1.58792 28.0799L1.58792 4.56679M1.58792 4.56679L1.58789 4.45925M1.58792 4.56679L1.58789 4.45925M1.65501 2.92469L1.65501 2.92469C1.6138 3.15284 1.60111 3.40566 1.59461 3.64608L1.65501 2.92469ZM1.65501 2.92469L1.65518 2.92375M1.65501 2.92469L1.65518 2.92375M1.65518 2.92375C1.68875 2.73585 1.73765 2.58985 1.80772 2.45224L1.80794 2.4518M1.65518 2.92375L1.80794 2.4518M1.80794 2.4518C1.87743 2.315 1.96835 2.18968 2.07897 2.07908L2.07909 2.07897M1.80794 2.4518L2.07909 2.07897M2.07909 2.07897C2.18888 1.96913 2.31429 1.87804 2.4527 1.80765L2.45294 1.80753M2.07909 2.07897L2.45294 1.80753M2.45294 1.80753C2.58927 1.7381 2.73571 1.68891 2.92464 1.65491L2.45294 1.80753ZM1.58789 4.45925L1.58789 4.45877M1.58789 4.45925L1.58789 4.45877M1.58789 4.45877L1.58853 4.05272C1.58945 3.91504 1.591 3.77998 1.59461 3.6461L1.58789 4.45877Z"
        stroke="white"/>
    <path
        d="M13.9193 10.9805C14.356 10.4343 14.6523 9.70102 14.5741 8.95166C13.9349 8.98344 13.1549 9.37335 12.7034 9.91992C12.2979 10.388 11.939 11.152 12.0326 11.8699C12.7501 11.9322 13.4669 11.5113 13.9193 10.9805Z"
        fill="white"/>
    <path
        d="M14.5642 12.01C13.5222 11.9479 12.6362 12.6014 12.1386 12.6014C11.6407 12.6014 10.8787 12.0413 10.0546 12.0564C8.98186 12.0721 7.98651 12.6787 7.44216 13.6433C6.32252 15.5731 7.14669 18.4356 8.23548 20.0073C8.76422 20.7849 9.40144 21.641 10.2411 21.6103C11.0344 21.5791 11.3454 21.0966 12.3097 21.0966C13.2733 21.0966 13.5534 21.6103 14.3932 21.5947C15.264 21.5791 15.8085 20.8167 16.3372 20.0384C16.9438 19.152 17.1921 18.2962 17.2077 18.2492C17.1921 18.2336 15.5284 17.5954 15.513 15.6817C15.4973 14.0793 16.8191 13.3171 16.8814 13.2698C16.1349 12.1658 14.9685 12.0413 14.5642 12.01Z"
        fill="white"/>
    <path
        d="M23.6377 9.84168C25.9025 9.84168 27.4796 11.4028 27.4796 13.6757C27.4796 15.9567 25.8701 17.5259 23.581 17.5259H21.0734V21.5136H19.2617V9.84167H23.6377V9.84168ZM21.0734 16.0052H23.1522C24.7296 16.0052 25.6273 15.156 25.6273 13.6838C25.6273 12.2118 24.7296 11.3705 23.1603 11.3705H21.0734V16.0052Z"
        fill="white"/>
    <path
        d="M27.9512 19.0957C27.9512 17.6073 29.0917 16.6933 31.114 16.5801L33.4434 16.4426V15.7875C33.4434 14.8411 32.8043 14.2749 31.7368 14.2749C30.7255 14.2749 30.0946 14.7601 29.941 15.5205H28.291C28.388 13.9836 29.6983 12.8512 31.8014 12.8512C33.864 12.8512 35.1824 13.9432 35.1824 15.6499V21.5142H33.508V20.1148H33.4677C32.9744 21.0612 31.8985 21.6597 30.7823 21.6597C29.116 21.6597 27.9512 20.6244 27.9512 19.0957ZM33.4434 18.3273V17.656L31.3483 17.7853C30.3049 17.8582 29.7145 18.3192 29.7145 19.0472C29.7145 19.7913 30.3292 20.2766 31.2675 20.2766C32.4888 20.2766 33.4434 19.4354 33.4434 18.3273Z"
        fill="white"/>
    <path
        d="M36.7612 24.6444V23.2289C36.8904 23.2612 37.1815 23.2612 37.3272 23.2612C38.136 23.2612 38.5729 22.9215 38.8397 22.048C38.8397 22.0317 38.9935 21.5303 38.9935 21.5222L35.9199 13.0048H37.8124L39.9643 19.9287H39.9964L42.1482 13.0048H43.9924L40.8052 21.9589C40.0775 24.0216 39.2363 24.6848 37.4729 24.6848C37.3272 24.6848 36.8904 24.6686 36.7612 24.6444Z"
        fill="white"/>
</svg>
