<svg class="my-auto mx-auto tablet:mt-auto  tablet:ml-auto tablet:mx-0" width="65" height="21"
     viewBox="0 0 65 21" fill="none" xmlns="http://www.w3.org/2000/svg">
    <path d="M28.1157 20.0664H22.8594L26.147 0.573242H31.4031L28.1157 20.0664Z" fill="white"/>
    <path
        d="M47.1718 1.04902C46.135 0.654601 44.4906 0.219116 42.4573 0.219116C37.2665 0.219116 33.6112 2.87337 33.5888 6.66815C33.5457 9.46792 36.2059 11.023 38.1955 11.9565C40.2291 12.9105 40.9204 13.5331 40.9204 14.3834C40.8997 15.6893 39.2771 16.2913 37.7638 16.2913C35.6652 16.2913 34.5408 15.9809 32.832 15.2544L32.1398 14.9429L31.4043 19.3187C32.6371 19.8573 34.9084 20.3352 37.2665 20.3561C42.7818 20.3561 46.3725 17.743 46.415 13.699C46.436 11.48 45.0313 9.77965 42.0029 8.39024C40.1644 7.49832 39.0386 6.89691 39.0386 5.98432C39.0601 5.1547 39.9908 4.30495 42.0661 4.30495C43.7749 4.26333 45.0304 4.6572 45.9815 5.05134L46.457 5.25833L47.1718 1.04902Z"
        fill="white"/>
    <path
        d="M54.1588 13.1607C54.5916 12.0408 56.2573 7.70664 56.2573 7.70664C56.2355 7.74826 56.6894 6.56611 56.9489 5.8404L57.3162 7.52005C57.3162 7.52005 58.3116 12.1861 58.5278 13.1607C57.7063 13.1607 55.197 13.1607 54.1588 13.1607ZM60.647 0.573242H56.5813C55.3275 0.573242 54.3749 0.925488 53.834 2.1906L46.0264 20.0661H51.5417C51.5417 20.0661 52.4497 17.6602 52.6448 17.142C53.2499 17.142 58.6152 17.142 59.3935 17.142C59.5444 17.8264 60.0207 20.0661 60.0207 20.0661H64.8876L60.647 0.573242Z"
        fill="white"/>
    <path
        d="M18.4692 0.573242L13.3216 13.8657L12.7672 12.1709C11.8155 9.06017 8.8308 5.68047 5.5 4L10.2069 20.0457H15.7653L24.0273 0.573242H18.4692Z"
        fill="white"/>
    <path
        d="M8.54345 0.57373H0.0865177L0 0.967596C6.59693 2.58523 10.966 6.48447 12.761 11.1712L10.9226 2.21231C10.6199 0.967321 9.68974 0.614798 8.54345 0.57373Z"
        fill="white"/>
</svg>
