<svg class="my-auto mx-auto tablet:mt-auto tablet:ml-0 tablet:mr-auto" width="49" height="31"
     viewBox="0 0 49 31" fill="none" xmlns="http://www.w3.org/2000/svg">
    <path
        d="M46.3475 0.948037L46.3473 0.948034C46.2126 0.944365 46.0775 0.94288 45.9394 0.9419C45.939 0.941897 45.9386 0.941894 45.9381 0.941891L45.4267 0.940918H45.4262H3.56514H3.56464L3.05015 0.941931C2.91319 0.94288 2.77816 0.944365 2.64424 0.948004L2.64419 0.948006C2.40267 0.954546 2.14923 0.967245 1.92282 1.00791L46.3475 0.948037ZM46.3475 0.948037C46.5882 0.954542 46.8415 0.967263 47.068 1.00783C47.2571 1.0419 47.4036 1.0911 47.541 1.16107L47.5414 1.16124M46.3475 0.948037L47.5414 1.16124M47.5414 1.16124C47.6776 1.23046 47.8031 1.32149 47.9132 1.43135C48.024 1.54222 48.1155 1.66825 48.1862 1.80719L48.1864 1.80755M47.5414 1.16124L48.1864 1.80755M48.1864 1.80755C48.2554 1.94285 48.3042 2.08786 48.3381 2.27853L48.3383 2.27998M48.1864 1.80755L48.3383 2.27998M48.3383 2.27998C48.3787 2.50296 48.3913 2.7565 48.398 2.99949M48.3383 2.27998L48.4041 3.40884M48.4041 3.40884L48.4041 3.40738C48.4034 3.26825 48.4016 3.1335 48.398 2.99949M48.4041 3.40884C48.4054 3.57527 48.4054 3.7419 48.4054 3.9112V3.91996V27.4329V27.4415C48.4054 27.6108 48.4054 27.7773 48.4041 27.9474L48.404 27.9489M48.4041 3.40884L48.404 27.9489M48.398 2.99949L48.8978 2.98595M48.398 2.99949C48.398 2.99951 48.398 2.99954 48.398 2.99957L48.8978 2.98595M48.8978 2.98595C48.8911 2.74043 48.8779 2.45421 48.8304 2.19104L48.9041 3.40498C48.9034 3.26311 48.9015 3.12453 48.8978 2.98595ZM48.404 27.9489C48.4034 28.0846 48.4016 28.2193 48.3979 28.3536L48.3979 28.3536M48.404 27.9489L48.3979 28.3536M48.3979 28.3536C48.3914 28.5959 48.3787 28.8495 48.3378 29.0757L48.3375 29.0772M48.3979 28.3536L48.3375 29.0772M48.3375 29.0772C48.3043 29.2642 48.2557 29.4093 48.186 29.5458L48.1857 29.5464M48.3375 29.0772L48.1857 29.5464M48.1857 29.5464C48.1152 29.6849 48.0239 29.8106 47.9142 29.9202L47.9141 29.9203M48.1857 29.5464L47.9141 29.9203M47.9141 29.9203C47.8032 30.0312 47.6784 30.1219 47.54 30.192L47.5387 30.1926M47.9141 29.9203L47.5387 30.1926M47.5387 30.1926C47.4028 30.262 47.2569 30.3111 47.0703 30.3447C46.8387 30.3859 46.5739 30.3987 46.3535 30.4047C46.2159 30.4078 46.079 30.4097 45.9386 30.4103L45.9371 30.4103M47.5387 30.1926L45.9371 30.4103M45.9371 30.4103C45.7682 30.4116 45.5984 30.4116 45.4267 30.4116H3.56464H3.56462H3.56459H3.56456H3.56454H3.56451H3.56448H3.56446H3.56443H3.5644H3.56437H3.56435H3.56432H3.5643H3.56427H3.56424H3.56422H3.56419H3.56416H3.56414H3.56411H3.56408H3.56406H3.56403H3.564H3.56398H3.56395H3.56392H3.5639H3.56387H3.56384H3.56382H3.56379H3.56376H3.56374H3.56371H3.56368H3.56366H3.56363H3.5636H3.56358H3.56355H3.56352H3.5635H3.56347H3.56344H3.56342H3.56339H3.56336H3.56334H3.56331H3.56329H3.56326H3.56323H3.56321H3.56318H3.56315H3.56313H3.5631H3.56307H3.56305H3.56302H3.56299H3.56297H3.56294H3.56291H3.56289H3.56286H3.56284H3.56281H3.56278H3.56276H3.56273H3.5627H3.56268H3.56265H3.56262H3.5626H3.56257H3.56254H3.56252H3.56249H3.56246H3.56244H3.56241H3.56239H3.56236H3.56233H3.56231H3.56228H3.56225H3.56223H3.5622H3.56217H3.56215H3.56212H3.56209H3.56207H3.56204H3.56202H3.56199H3.56196H3.56194H3.56191H3.56188H3.56186H3.56183H3.5618H3.56178H3.56175H3.56172H3.5617H3.56167H3.56165H3.56162H3.56159H3.56157H3.56154H3.56151H3.56149H3.56146H3.56143H3.56141H3.56138H3.56135H3.56133H3.5613H3.56128H3.56125H3.56122H3.5612H3.56117H3.56114H3.56112H3.56109H3.56106H3.56104H3.56101H3.56098H3.56096H3.56093H3.5609H3.56088H3.56085H3.56083H3.5608H3.56077H3.56075H3.56072H3.56069H3.56067H3.56064H3.56061H3.56059H3.56056H3.56053H3.56051H3.56048H3.56045H3.56043H3.5604H3.56038H3.56035H3.56032H3.5603H3.56027H3.56024H3.56022H3.56019H3.56016H3.56014H3.56011H3.56008H3.56006H3.56003H3.56H3.55998H3.55995H3.55992H3.5599H3.55987H3.55984H3.55982H3.55979H3.55976H3.55974H3.55971H3.55968H3.55966H3.55963H3.5596H3.55958H3.55955H3.55952H3.5595H3.55947H3.55944H3.55942H3.55939H3.55936H3.55934H3.55931H3.55928H3.55926H3.55923H3.5592H3.55918H3.55915H3.55912H3.5591H3.55907H3.55904H3.55902H3.55899H3.55896H3.55894H3.55891H3.55888H3.55886H3.55883H3.5588H3.55878H3.55875H3.55872H3.5587H3.55867H3.55864H3.55861H3.55859H3.55856H3.55853H3.55851H3.55848H3.55845H3.55843H3.5584H3.55837H3.55835H3.55832H3.55829H3.55827H3.55824H3.55821H3.55818H3.55816H3.55813H3.5581H3.55808H3.55805H3.55802H3.558H3.55797H3.55794H3.55791H3.55789H3.55786H3.55783C3.38827 30.4116 3.22057 30.4116 3.05046 30.4103L3.04893 30.4103M45.9371 30.4103L3.04893 30.4103M3.04893 30.4103C2.91166 30.4097 2.77485 30.4078 2.64279 30.4048C2.41659 30.3987 2.1516 30.3859 1.92232 30.3449L1.83439 30.8371L1.92288 30.345C1.73436 30.3111 1.58835 30.2621 1.44988 30.1914L1.44873 30.1908M3.04893 30.4103L1.44873 30.1908M1.44873 30.1908C1.31226 30.1216 1.18756 30.0312 1.07661 29.92L1.07602 29.9195M1.44873 30.1908L1.07602 29.9195M1.07602 29.9195C0.96669 29.8103 0.875914 29.6854 0.805477 29.5467L0.805296 29.5464M1.07602 29.9195L0.805296 29.5464M0.805296 29.5464C0.735839 29.4099 0.686823 29.264 0.652835 29.0737L0.65266 29.0727M0.805296 29.5464L0.65266 29.0727M0.65266 29.0727C0.611866 28.8469 0.599166 28.5943 0.59266 28.3539L0.65266 29.0727ZM0.585968 27.4329V27.433L0.585938 27.5406L0.585937 27.5411L0.586605 27.9468C0.586608 27.9472 0.58661 27.9476 0.586613 27.948C0.587498 28.0848 0.589043 28.2199 0.592659 28.3539L0.585968 27.4329ZM0.585968 27.4329V3.91996L0.585968 3.91982M0.585968 27.4329L0.585968 3.91982M0.585968 3.91982L0.585938 3.81227M0.585968 3.91982L0.585938 3.81227M0.653059 2.27772L0.653058 2.27772C0.611851 2.50587 0.59916 2.75869 0.59266 2.99911L0.653059 2.27772ZM0.653059 2.27772L0.653228 2.27678M0.653059 2.27772L0.653228 2.27678M0.653228 2.27678C0.686793 2.08888 0.7357 1.94288 0.805768 1.80527L0.80599 1.80483M0.653228 2.27678L0.80599 1.80483M0.80599 1.80483C0.875477 1.66803 0.966401 1.5427 1.07702 1.43211L1.07713 1.43199M0.80599 1.80483L1.07713 1.43199M1.07713 1.43199C1.18693 1.32216 1.31233 1.23107 1.45075 1.16067L1.45098 1.16055M1.07713 1.43199L1.45098 1.16055M1.45098 1.16055C1.58731 1.09113 1.73376 1.04194 1.92269 1.00794L1.45098 1.16055ZM0.585938 3.81227L0.585937 3.8118M0.585938 3.81227L0.585937 3.8118M0.585937 3.8118L0.586582 3.40575C0.587499 3.26807 0.589043 3.13301 0.592659 2.99912L0.585937 3.8118Z"
        stroke="white"/>
    <path
        d="M23.786 16.4139V20.9183H22.333V9.77844H26.1109C27.0311 9.77844 27.9029 10.1175 28.581 10.7471C29.2591 11.3283 29.5981 12.2001 29.5981 13.1204C29.5981 14.0406 29.2591 14.864 28.581 15.4937C27.9029 16.1233 27.0795 16.4623 26.1109 16.4623L23.786 16.4139ZM23.786 11.1346V15.0093H26.2077C26.7405 15.0093 27.2733 14.8156 27.6123 14.4281C28.3873 13.7016 28.3873 12.4908 27.6608 11.7642L27.6123 11.7158C27.2249 11.3283 26.7405 11.0862 26.2077 11.1346H23.786Z"
        fill="white"/>
    <path
        d="M32.9425 13.0715C34.0081 13.0715 34.8315 13.3621 35.4611 13.9433C36.0908 14.5246 36.3814 15.2995 36.3814 16.2682V20.9179H35.0252V19.8523H34.9768C34.3956 20.7241 33.5722 21.16 32.6035 21.16C31.7801 21.16 31.0536 20.9179 30.4724 20.4335C29.9396 19.9492 29.6006 19.2711 29.6006 18.5446C29.6006 17.7696 29.8912 17.14 30.4724 16.6557C31.0536 16.1713 31.877 15.9776 32.8457 15.9776C33.7175 15.9776 34.3956 16.1229 34.9283 16.4619V16.1229C34.9283 15.6385 34.7346 15.1542 34.3471 14.8636C33.9597 14.5246 33.4753 14.3308 32.9425 14.3308C32.1192 14.3308 31.4895 14.6699 31.0536 15.3479L29.7943 14.573C30.5693 13.5559 31.5864 13.0715 32.9425 13.0715ZM31.102 18.593C31.102 18.9805 31.2958 19.3195 31.5864 19.5133C31.9254 19.7554 32.3129 19.9007 32.7004 19.9007C33.2816 19.9007 33.8628 19.6586 34.2987 19.2227C34.783 18.7868 35.0252 18.254 35.0252 17.6728C34.5893 17.3337 33.9597 17.14 33.1363 17.14C32.5551 17.14 32.0707 17.2853 31.6833 17.5759C31.2958 17.8181 31.102 18.1571 31.102 18.593Z"
        fill="white"/>
    <path
        d="M44.2282 13.3138L39.4332 24.3084H37.9802L39.7722 20.4821L36.624 13.3623H38.1739L40.4503 18.8353H40.4988L42.7267 13.3623H44.2282V13.3138Z"
        fill="white"/>
    <path
        d="M18.0261 15.4449C18.0261 15.009 17.9777 14.5731 17.9293 14.1372H11.875V16.6073H15.3138C15.1685 17.3823 14.7326 18.1088 14.0545 18.5447V20.143H16.1372C17.3481 19.029 18.0261 17.3823 18.0261 15.4449Z"
        fill="white"/>
    <path
        d="M11.8764 21.6929C13.62 21.6929 15.073 21.1117 16.1386 20.1431L14.0559 18.5447C13.4747 18.9322 12.7482 19.1744 11.8764 19.1744C10.2296 19.1744 8.77657 18.0604 8.29223 16.5105H6.16113V18.1573C7.27512 20.3368 9.45465 21.6929 11.8764 21.6929Z"
        fill="white"/>
    <path
        d="M8.28906 16.5102C7.99846 15.7353 7.99846 14.8634 8.28906 14.0401V12.3933H6.15796C5.23771 14.1854 5.23771 16.3165 6.15796 18.157L8.28906 16.5102Z"
        fill="white"/>
    <path
        d="M11.8709 11.425C12.7911 11.425 13.663 11.764 14.341 12.3937L16.1815 10.5532C15.0191 9.48762 13.4692 8.85798 11.9193 8.90641C9.49762 8.90641 7.26965 10.2626 6.2041 12.4421L8.3352 14.0889C8.77111 12.539 10.2241 11.425 11.8709 11.425Z"
        fill="white"/>
</svg>
