<svg width="16" height="24" viewBox="0 0 14 16" fill="none" xmlns="http://www.w3.org/2000/svg">
    <path d="M13.6977 6.47331C13.5669 6.48602 13.4356 6.49268 13.3041 6.49327C12.5945 6.49337 11.8959 6.31685 11.2716 5.97965C10.6473 5.64244 10.1168 5.15517 9.7281 4.56182V11.1389C9.7281 12.1003 9.44283 13.0402 8.90836 13.8396C8.37389 14.639 7.61423 15.262 6.72544 15.63C5.83665 15.9979 4.85866 16.0942 3.91512 15.9066C2.97159 15.719 2.1049 15.2561 1.42465 14.5762C0.7444 13.8964 0.281144 13.0302 0.0934635 12.0872C-0.0942169 11.1443 0.00210763 10.1669 0.370256 9.27862C0.738404 8.39037 1.36184 7.63117 2.16173 7.09702C2.96162 6.56287 3.90203 6.27777 4.86405 6.27777C4.96559 6.27777 5.06484 6.2869 5.16467 6.29317V8.68866C5.06484 8.67669 4.96673 8.65845 4.86405 8.65845C4.20565 8.65845 3.57421 8.91984 3.10865 9.38512C2.64309 9.8504 2.38154 10.4815 2.38154 11.1395C2.38154 11.7975 2.64309 12.4285 3.10865 12.8938C3.57421 13.3591 4.20565 13.6205 4.86405 13.6205C6.23536 13.6205 7.44639 12.5407 7.44639 11.1702L7.47034 0H9.76347C9.86824 0.995761 10.3199 1.92303 11.0395 2.61968C11.7591 3.31633 12.7008 3.73802 13.7 3.81102V6.47331" fill="white"/>
</svg>
