<svg width="17" height="16" viewBox="0 0 17 16" fill="none" xmlns="http://www.w3.org/2000/svg">
    <path fill-rule="evenodd" clip-rule="evenodd" d="M8.55569 0C6.383 0 6.11057 0.00920848 5.25728 0.0481415C4.40578 0.0869788 3.82422 0.222227 3.31536 0.420003C2.78929 0.624417 2.34315 0.897964 1.89838 1.34271C1.45363 1.78748 1.18008 2.23362 0.975667 2.75969C0.777891 3.26855 0.642648 3.8501 0.603811 4.70161C0.564878 5.55489 0.555664 5.82733 0.555664 8.00002C0.555664 10.1727 0.564878 10.4451 0.603811 11.2984C0.642648 12.1499 0.777891 12.7314 0.975667 13.2403C1.18008 13.7664 1.45363 14.2125 1.89838 14.6573C2.34315 15.102 2.78929 15.3756 3.31536 15.58C3.82422 15.7778 4.40578 15.913 5.25728 15.9519C6.11057 15.9908 6.383 16 8.55569 16C10.7283 16 11.0008 15.9908 11.854 15.9519C12.7056 15.913 13.2871 15.7778 13.796 15.58C14.322 15.3756 14.7682 15.102 15.213 14.6573C15.6577 14.2125 15.9312 13.7664 16.1357 13.2403C16.3334 12.7314 16.4687 12.1499 16.5075 11.2984C16.5465 10.4451 16.5557 10.1727 16.5557 8.00002C16.5557 5.82733 16.5465 5.55489 16.5075 4.70161C16.4687 3.8501 16.3334 3.26855 16.1357 2.75969C15.9312 2.23362 15.6577 1.78748 15.213 1.34271C14.7682 0.897964 14.322 0.624417 13.796 0.420003C13.2871 0.222227 12.7056 0.0869788 11.854 0.0481415C11.0008 0.00920848 10.7283 0 8.55569 0ZM8.55569 1.44144C10.6918 1.44144 10.9448 1.4496 11.7884 1.48809C12.5683 1.52365 12.9919 1.65398 13.2738 1.76354C13.6473 1.90867 13.9138 2.08202 14.1937 2.36198C14.4736 2.64191 14.647 2.90841 14.7921 3.28183C14.9017 3.56373 15.032 3.98732 15.0676 4.76731C15.1061 5.61088 15.1142 5.86391 15.1142 8.00002C15.1142 10.1361 15.1061 10.3891 15.0676 11.2327C15.032 12.0127 14.9017 12.4363 14.7921 12.7182C14.647 13.0916 14.4736 13.3581 14.1937 13.638C13.9138 13.918 13.6473 14.0913 13.2738 14.2365C12.9919 14.346 12.5683 14.4763 11.7884 14.5119C10.9449 14.5504 10.6919 14.5586 8.55569 14.5586C6.41942 14.5586 6.16645 14.5504 5.32298 14.5119C4.54299 14.4763 4.11939 14.346 3.83749 14.2365C3.46407 14.0913 3.19757 13.918 2.91764 13.638C2.63771 13.3581 2.46433 13.0916 2.3192 12.7182C2.20965 12.4363 2.07932 12.0127 2.04375 11.2327C2.00526 10.3891 1.9971 10.1361 1.9971 8.00002C1.9971 5.86391 2.00526 5.61088 2.04375 4.76731C2.07932 3.98732 2.20965 3.56373 2.3192 3.28183C2.46433 2.90841 2.63768 2.64191 2.91764 2.36198C3.19757 2.08202 3.46407 1.90867 3.83749 1.76354C4.11939 1.65398 4.54299 1.52365 5.32298 1.48809C6.16655 1.4496 6.41958 1.44144 8.55569 1.44144ZM8.55569 3.8919C6.28681 3.8919 4.44756 5.73114 4.44756 8.00002C4.44756 10.2689 6.28681 12.1081 8.55569 12.1081C10.8245 12.1081 12.6638 10.2689 12.6638 8.00002C12.6638 5.73114 10.8245 3.8919 8.55569 3.8919ZM8.55569 10.6667C7.0829 10.6667 5.889 9.47277 5.889 8.00002C5.889 6.52723 7.0829 5.33333 8.55569 5.33333C10.0284 5.33333 11.2223 6.52723 11.2223 8.00002C11.2223 9.47277 10.0284 10.6667 8.55569 10.6667ZM13.7861 3.72959C13.7861 4.25979 13.3563 4.68958 12.8261 4.68958C12.2959 4.68958 11.8661 4.25979 11.8661 3.72959C11.8661 3.19939 12.2959 2.76957 12.8261 2.76957C13.3563 2.76957 13.7861 3.19939 13.7861 3.72959Z" fill="white"/>
</svg>
