<svg width="21" height="16" viewBox="0 0 21 16" fill="none" xmlns="http://www.w3.org/2000/svg">
    <path d="M6.77363 15.9992C6.19301 15.9992 6.29167 15.7745 6.09142 15.2077L5.38086 9.17981C13.1529 3.67017 17.2505 1.49526 17.6735 2.65507C18.0964 3.81489 14.4632 8.26293 6.77363 15.9992Z" fill="#C8DAEA"/>
    <path d="M6.42871 15.9988C7.02611 15.9988 7.29007 15.7379 7.62352 15.4283L10.8097 12.4695L8.05278 10.5273" fill="#A9C9DD"/>
    <path d="M8.00922 10.559L15.5858 15.7821C16.4504 16.2272 17.0744 15.9967 17.2898 15.0331L20.3739 1.47242C20.6896 0.29121 19.8913 -0.244533 19.0642 0.105845L0.954571 6.6215C-0.28158 7.08414 -0.274373 7.72763 0.729247 8.01436L5.37658 9.3678L16.1357 3.03429C16.6436 2.7469 17.1097 2.90141 16.7271 3.21825" fill="url(#paint0_linear)"/>
    <defs>
        <linearGradient id="paint0_linear" x1="13.4872" y1="7.37673" x2="16.3495" y2="11.6862" gradientUnits="userSpaceOnUse">
            <stop stop-color="#EFF7FC"/>
            <stop offset="1" stop-color="white"/>
        </linearGradient>
    </defs>
</svg>
