<svg width="17" height="16" viewBox="0 0 17 16" fill="none" xmlns="http://www.w3.org/2000/svg">
    <path fill-rule="evenodd" clip-rule="evenodd" d="M9.10178 16H1.43874C0.950888 16 0.555664 15.6045 0.555664 15.1169V0.883072C0.555664 0.395285 0.95095 0 1.43874 0H15.6726C16.1603 0 16.5557 0.395285 16.5557 0.883072V15.1169C16.5557 15.6046 16.1603 16 15.6726 16H11.5954V9.80392H13.6752L13.9866 7.3892H11.5954V5.84755C11.5954 5.14843 11.7896 4.672 12.7921 4.672L14.0708 4.67144V2.5117C13.8496 2.48227 13.0906 2.41652 12.2075 2.41652C10.3639 2.41652 9.10178 3.54184 9.10178 5.6084V7.3892H7.0167V9.80392H9.10178V16Z" fill="white"/>
</svg>
