<svg width="24" height="16" viewBox="0 0 24 16" fill="none" xmlns="http://www.w3.org/2000/svg">
    <path fill-rule="evenodd" clip-rule="evenodd" d="M9.56959 10.9506L9.56886 4.55894L15.7832 7.76577L9.56959 10.9506ZM23.2143 3.45137C23.2143 3.45137 22.9894 1.88386 22.3001 1.19359C21.4254 0.287205 20.445 0.282931 19.9958 0.230325C16.7772 -3.33786e-06 11.9494 0 11.9494 0H11.9393C11.9393 0 7.11146 -3.33786e-06 3.8929 0.230325C3.44296 0.282931 2.46331 0.287205 1.58787 1.19359C0.898588 1.88386 0.674334 3.45137 0.674334 3.45137C0.674334 3.45137 0.444336 5.29258 0.444336 7.13307V8.85912C0.444336 10.7003 0.674334 12.5408 0.674334 12.5408C0.674334 12.5408 0.898588 14.1083 1.58787 14.7986C2.46331 15.705 3.61258 15.6765 4.12433 15.7711C5.96433 15.946 11.9443 16 11.9443 16C11.9443 16 16.7772 15.9929 19.9958 15.7626C20.445 15.7092 21.4254 15.705 22.3001 14.7986C22.9894 14.1083 23.2143 12.5408 23.2143 12.5408C23.2143 12.5408 23.4443 10.7003 23.4443 8.85912V7.13307C23.4443 5.29258 23.2143 3.45137 23.2143 3.45137Z" fill="white"/>
</svg>
