<svg width="81" height="26" viewBox="0 0 81 26" fill="none" xmlns="http://www.w3.org/2000/svg">
    <path d="M27.1577 19.6492C27.0293 19.6535 26.9031 19.6834 26.7869 19.737C26.6707 19.7907 26.567 19.8669 26.4821 19.9611C26.1014 20.3405 25.684 20.6829 25.2357 20.9837C24.712 21.3672 24.136 21.7353 23.5704 22.0779C23.064 22.3904 22.5394 22.6738 21.9993 22.9267C21.6919 23.0935 21.3538 23.1995 21.0043 23.2386C21.0895 23.0355 21.1966 22.8418 21.3238 22.6608C21.6118 22.2313 21.9627 21.7302 22.3711 21.1729L23.7432 19.3527C24.2355 18.7084 24.6963 18.0693 25.1258 17.4557C25.5161 16.8874 25.8711 16.2966 26.1889 15.6866C26.4656 15.2176 26.6287 14.6929 26.6654 14.1527C26.6797 13.9606 26.6381 13.7685 26.5455 13.5984C26.4528 13.4283 26.3129 13.2873 26.1417 13.1915C25.8326 13.0381 25.4879 12.9659 25.1415 12.9819C24.5467 13.0031 23.9639 13.1514 23.4342 13.4165C22.7797 13.7229 22.1495 14.0767 21.549 14.4749C20.8943 14.9043 20.224 15.3952 19.5589 15.927C18.8938 16.4587 18.2654 16.9802 17.6579 17.512L17.7888 17.3126C18.1188 16.8013 18.4225 16.3155 18.6948 15.8451C18.9495 15.4055 19.1769 14.9514 19.3756 14.4851C19.5603 14.1117 19.6705 13.7074 19.7003 13.2937C19.7123 13.0949 19.6665 12.8969 19.5683 12.7223C19.4701 12.5477 19.3235 12.4038 19.1452 12.3069C18.8199 12.1507 18.4602 12.0752 18.0978 12.0871C17.2048 12.1657 16.3478 12.4687 15.6103 12.9665L15.4689 13.0483C15.7874 11.9945 15.9427 10.9002 15.9297 9.80155C15.9297 7.17346 15.1966 5.08734 13.746 3.60456C12.9941 2.85223 12.0883 2.26304 11.0876 1.87541C10.087 1.48777 9.01383 1.31039 7.93822 1.35483C6.7327 1.33984 5.53681 1.56605 4.42425 2.01953C3.61533 2.36797 2.8868 2.87231 2.28235 3.5023C1.64239 4.15872 1.1233 4.91808 0.747937 5.74692C0.216228 7.06783 -0.0367104 8.48 0.00429546 9.8987C0.00429546 12.4552 0.732226 14.5004 2.16714 16.0036C3.60205 17.5069 5.5659 18.2329 7.99059 18.2329C8.29433 18.2329 11.3003 18.6931 15.6784 15.1191C15.6312 15.2265 15.5632 15.3543 15.4794 15.5077C15.2071 16.019 12.9866 19.7566 12.8609 19.9969C12.8207 20.0742 12.7924 20.1569 12.7771 20.2423C12.7651 20.3494 12.7651 20.4574 12.7771 20.5645C12.7976 20.768 12.8629 20.9648 12.9687 21.1413C13.0745 21.3179 13.2181 21.4699 13.3898 21.5871C13.7413 21.8904 14.1933 22.0593 14.6624 22.0626C14.8629 22.049 15.0587 21.9968 15.2384 21.9091C15.4182 21.8213 15.5784 21.6997 15.7098 21.5513C18.3701 19.1993 19.1243 18.7187 20.1402 17.9261C20.8105 17.4148 21.3814 17.0672 21.8946 16.7195L20.821 18.054C20.3811 18.6062 19.9412 19.1635 19.5118 19.7055C19.0824 20.2475 18.8258 20.6667 18.4278 21.2394C18.0577 21.7626 17.7235 22.3092 17.4275 22.8756C17.174 23.3162 17.0271 23.8077 16.9981 24.3123C16.9891 24.5789 17.0558 24.8427 17.1907 25.0745C17.3256 25.3064 17.5236 25.4974 17.7627 25.6264C18.2186 25.8795 18.7359 26.0085 19.2604 25.9996C20.1373 25.9702 20.9955 25.7445 21.7689 25.34C22.5733 24.9836 23.3443 24.5593 24.0731 24.072C24.8639 23.5147 25.5918 22.9574 26.2255 22.4154C26.8592 21.8734 27.2362 21.4746 27.5138 21.2087C27.6303 21.1024 27.7238 20.9743 27.7886 20.832C27.8533 20.6897 27.8881 20.5361 27.8909 20.3804C27.8976 20.284 27.8834 20.1873 27.8492 20.0966C27.8149 20.0059 27.7614 19.9234 27.6922 19.8543C27.6229 19.7853 27.5395 19.7313 27.4474 19.6959C27.3553 19.6606 27.2566 19.6447 27.1577 19.6492ZM10.8866 13.6465C10.5309 14.0576 10.0849 14.3851 9.58169 14.6047C9.07848 14.8242 8.53105 14.9301 7.98011 14.9146C7.42646 14.9296 6.87642 14.823 6.37063 14.6027C5.86484 14.3823 5.41622 14.0538 5.05792 13.6414C4.28809 12.7824 3.89532 11.4837 3.89532 9.79132C3.89532 8.09891 4.27762 6.77464 5.02649 5.93099C5.39222 5.51962 5.84808 5.19389 6.36028 4.97792C6.87248 4.76196 7.42789 4.6613 7.98535 4.68341C8.53816 4.65817 9.08965 4.75546 9.59846 4.96799C10.1073 5.18051 10.5602 5.50275 10.9233 5.91054C11.6617 6.73885 12.0335 8.02733 12.0335 9.74531C12.0335 11.4633 11.646 12.7824 10.8866 13.6465Z" fill="white"/>
    <path d="M41.4201 15.7431C41.4042 15.683 41.3646 15.6316 41.3101 15.5999C41.2749 15.5804 41.2353 15.5698 41.1949 15.5692H41.1268C41.0375 15.5953 40.9465 15.6158 40.8545 15.6306L40.5507 15.6715L40.2784 15.7073H40.0689C39.8571 15.7135 39.6463 15.6751 39.451 15.5948C39.3071 15.5364 39.1835 15.4387 39.0949 15.3136C38.9944 15.1689 38.9265 15.0051 38.8959 14.8329C38.8503 14.6056 38.8292 14.3743 38.833 14.1427C38.8048 13.7101 38.9145 13.2796 39.1472 12.9104C39.2543 12.7787 39.393 12.6748 39.551 12.6079C39.7091 12.541 39.8816 12.5132 40.0532 12.527C40.2021 12.5283 40.3508 12.5386 40.4984 12.5576C40.6658 12.5795 40.8306 12.6172 40.9906 12.6701H41.0639C41.1022 12.6706 41.14 12.6619 41.1739 12.6446C41.203 12.6282 41.2283 12.6062 41.2481 12.5797C41.268 12.5533 41.2819 12.5232 41.2891 12.4912L41.4253 11.9236C41.4392 11.8674 41.4313 11.8082 41.4033 11.7573C41.3753 11.7063 41.3291 11.6673 41.2734 11.6475C41.0815 11.5853 40.8856 11.5358 40.6869 11.4992C40.4481 11.46 40.2063 11.4411 39.9642 11.443C39.5407 11.4403 39.1244 11.5499 38.7597 11.76C38.4588 11.9238 38.2021 12.1552 38.0108 12.4349C37.8371 12.6976 37.7129 12.9885 37.6442 13.2939C37.4962 13.918 37.4962 14.5668 37.6442 15.1908C37.7145 15.4979 37.8501 15.787 38.0423 16.0396C38.2373 16.2902 38.4952 16.4874 38.7911 16.6123C39.1443 16.755 39.5245 16.823 39.9066 16.8117C40.027 16.8117 40.158 16.8117 40.2889 16.8117C40.4198 16.8117 40.556 16.781 40.6869 16.7605C40.8121 16.7411 40.9362 16.7155 41.0587 16.6838C41.1767 16.6573 41.2923 16.6214 41.4043 16.5765C41.4574 16.5558 41.5007 16.5167 41.5259 16.4666C41.551 16.4165 41.5563 16.3591 41.5405 16.3055L41.4201 15.7431Z" fill="white"/>
    <path d="M49.8916 15.7174H47.6607V11.7599C47.6614 11.7299 47.6559 11.7001 47.6447 11.6722C47.6334 11.6443 47.6165 11.6189 47.5951 11.5975C47.5736 11.576 47.548 11.559 47.5197 11.5474C47.4914 11.5358 47.461 11.5298 47.4303 11.5298H46.6133C46.5826 11.5298 46.5522 11.5358 46.5239 11.5474C46.4956 11.559 46.4699 11.576 46.4485 11.5975C46.427 11.6189 46.4102 11.6443 46.3989 11.6722C46.3876 11.7001 46.3822 11.7299 46.3829 11.7599V16.515C46.3822 16.5452 46.3876 16.5753 46.3988 16.6034C46.41 16.6316 46.4268 16.6574 46.4482 16.6792C46.4696 16.701 46.4952 16.7185 46.5235 16.7307C46.5518 16.7429 46.5823 16.7495 46.6133 16.7502H49.8759C49.9068 16.7495 49.9374 16.7429 49.9657 16.7307C49.994 16.7185 50.0196 16.701 50.041 16.6792C50.0624 16.6574 50.0792 16.6316 50.0904 16.6034C50.1016 16.5753 50.107 16.5452 50.1063 16.515V15.9526C50.1079 15.894 50.0865 15.8371 50.0467 15.7934C50.0068 15.7497 49.9513 15.7225 49.8916 15.7174Z" fill="white"/>
    <path d="M55.8354 11.5498H55.0551C54.9926 11.5498 54.9326 11.574 54.8884 11.6172C54.8442 11.6603 54.8194 11.7189 54.8194 11.7799V16.5146C54.8187 16.5452 54.8243 16.5757 54.8358 16.6042C54.8473 16.6327 54.8646 16.6587 54.8865 16.6806C54.9085 16.7025 54.9347 16.7199 54.9636 16.7318C54.9926 16.7436 55.0237 16.7498 55.0551 16.7498H55.8354C55.8663 16.7491 55.8968 16.7425 55.9251 16.7303C55.9535 16.7181 55.9791 16.7006 56.0005 16.6788C56.0219 16.6569 56.0387 16.6312 56.0499 16.603C56.0611 16.5748 56.0665 16.5448 56.0658 16.5146V11.7594C56.0606 11.7029 56.0342 11.6502 55.9917 11.6115C55.9492 11.5728 55.8935 11.5508 55.8354 11.5498Z" fill="white"/>
    <path d="M65.3186 11.5552H64.5645C64.502 11.5552 64.442 11.5794 64.3978 11.6226C64.3537 11.6657 64.3288 11.7242 64.3288 11.7853V14.5872L64.0617 14.1679C63.7947 13.7436 63.5381 13.3243 63.2605 12.9101C62.9829 12.496 62.7368 12.0767 62.4435 11.6574C62.423 11.6267 62.3951 11.6013 62.3623 11.5834C62.3294 11.5656 62.2926 11.5559 62.255 11.5552H61.459C61.3974 11.5565 61.3388 11.5813 61.2957 11.6243C61.2527 11.6674 61.2286 11.7251 61.2286 11.7853V16.5148C61.2279 16.545 61.2333 16.5751 61.2445 16.6033C61.2557 16.6314 61.2725 16.6572 61.2939 16.679C61.3153 16.7009 61.3409 16.7184 61.3692 16.7306C61.3975 16.7427 61.428 16.7493 61.459 16.75H62.2131C62.2443 16.75 62.2751 16.7439 62.3038 16.732C62.3324 16.72 62.3583 16.7025 62.3799 16.6805C62.4014 16.6586 62.4182 16.6325 62.4291 16.604C62.44 16.5756 62.445 16.5452 62.4435 16.5148V13.6669L62.6059 13.9276C62.8992 14.3776 63.1819 14.8326 63.47 15.2877C63.758 15.7427 64.046 16.1978 64.3393 16.6477C64.3603 16.6792 64.389 16.7051 64.4229 16.7229C64.4567 16.7408 64.4946 16.7501 64.5331 16.75H65.3134C65.3443 16.7493 65.3748 16.7427 65.4032 16.7306C65.4315 16.7184 65.4571 16.7009 65.4785 16.679C65.4999 16.6572 65.5167 16.6314 65.5279 16.6033C65.5391 16.5751 65.5445 16.545 65.5438 16.5148V11.7853C65.5439 11.726 65.5205 11.6689 65.4785 11.6261C65.4366 11.5832 65.3793 11.5578 65.3186 11.5552Z" fill="white"/>
    <path d="M71.7244 11.5501H70.9493C70.8885 11.5472 70.8289 11.5674 70.783 11.6065C70.7371 11.6456 70.7085 11.7005 70.7032 11.7597V16.5148C70.7025 16.5455 70.7081 16.5759 70.7196 16.6044C70.7311 16.6329 70.7484 16.6589 70.7703 16.6808C70.7923 16.7027 70.8185 16.7201 70.8474 16.732C70.8764 16.7439 70.9075 16.75 70.9388 16.75H71.7139C71.7449 16.7494 71.7754 16.7427 71.8037 16.7306C71.832 16.7184 71.8576 16.7009 71.879 16.679C71.9004 16.6572 71.9172 16.6314 71.9284 16.6033C71.9396 16.5751 71.945 16.545 71.9443 16.5148V11.7597C71.9394 11.7048 71.9145 11.6535 71.8742 11.6151C71.8338 11.5766 71.7807 11.5535 71.7244 11.5501Z" fill="white"/>
    <path d="M80.9937 16.29L80.8523 15.743C80.8453 15.7129 80.8318 15.6846 80.8129 15.66C80.7939 15.6353 80.7699 15.6148 80.7423 15.5998C80.7087 15.5811 80.671 15.5706 80.6323 15.5691H80.5643C80.4731 15.5951 80.3804 15.6156 80.2867 15.6305L79.983 15.6714C79.8887 15.6714 79.7944 15.6969 79.7106 15.7072H79.5012C79.2892 15.7144 79.0782 15.676 78.8832 15.5947C78.7399 15.5353 78.6165 15.4379 78.5271 15.3135C78.4265 15.1689 78.3586 15.0051 78.3281 14.8328C78.2821 14.6056 78.261 14.3742 78.2653 14.1426C78.237 13.71 78.3468 13.2795 78.5795 12.9103C78.686 12.7794 78.8239 12.6759 78.9809 12.6091C79.138 12.5422 79.3094 12.514 79.4802 12.5269C79.6291 12.5284 79.7777 12.5386 79.9254 12.5575C80.0911 12.5794 80.2542 12.6171 80.4124 12.67H80.4857C80.524 12.6708 80.5618 12.662 80.5957 12.6445C80.6242 12.6281 80.6488 12.6059 80.6678 12.5795C80.6868 12.553 80.6997 12.5228 80.7057 12.4911L80.847 11.9235C80.8621 11.8673 80.8549 11.8075 80.8267 11.7563C80.7985 11.7051 80.7515 11.6662 80.6952 11.6474C80.5033 11.5851 80.3074 11.5355 80.1087 11.4991C79.8682 11.4593 79.6246 11.4405 79.3807 11.4429C78.9668 11.4282 78.5564 11.5218 78.1919 11.7139C77.8908 11.8774 77.6341 12.1088 77.4431 12.3888C77.262 12.6563 77.1341 12.9546 77.066 13.2682C76.9988 13.5586 76.9637 13.8551 76.9613 14.1528C76.9569 14.497 76.9956 14.8404 77.0765 15.1754C77.1459 15.4827 77.2815 15.7721 77.4745 16.0242C77.6697 16.2746 77.9276 16.4718 78.2234 16.5968C78.5766 16.7394 78.9568 16.8074 79.3388 16.7962C79.4593 16.7962 79.585 16.7962 79.7211 16.7962L80.1191 16.7451C80.246 16.7257 80.3719 16.7001 80.4962 16.6684C80.6144 16.6424 80.73 16.6065 80.8418 16.561C80.8971 16.5423 80.9432 16.5042 80.9712 16.4541C80.9993 16.404 81.0073 16.3456 80.9937 16.29Z" fill="white"/>
    <path d="M26.5454 2.07607H25.1419V0.659761C25.1427 0.572079 25.1253 0.48515 25.091 0.404133C25.0566 0.323117 25.006 0.249666 24.942 0.188143C24.878 0.12662 24.802 0.0782783 24.7185 0.0459893C24.635 0.0137004 24.5457 -0.00187767 24.4559 0.000180294H24.0108C23.8334 0.00286516 23.6643 0.07354 23.5398 0.196945C23.4154 0.320351 23.3457 0.486587 23.3457 0.659761V2.07607H21.9317C21.8437 2.07674 21.7566 2.09433 21.6756 2.12784C21.5945 2.16135 21.521 2.21012 21.4592 2.27137C21.3975 2.33262 21.3487 2.40514 21.3156 2.4848C21.2826 2.56447 21.2659 2.6497 21.2666 2.73565V3.17537C21.2659 3.26132 21.2826 3.34655 21.3156 3.42622C21.3487 3.50588 21.3975 3.5784 21.4592 3.63965C21.521 3.7009 21.5945 3.74967 21.6756 3.78318C21.7566 3.81669 21.8437 3.83428 21.9317 3.83495H23.3509V5.25126C23.3509 5.42443 23.4206 5.59067 23.5451 5.71407C23.6695 5.83748 23.8387 5.90815 24.016 5.91084H24.4611C24.5505 5.91221 24.6392 5.89612 24.7221 5.86352C24.805 5.83092 24.8804 5.78247 24.9438 5.72101C25.0072 5.65956 25.0574 5.58635 25.0915 5.50567C25.1255 5.425 25.1426 5.3385 25.1419 5.25126V3.83495H26.5664C26.6544 3.83428 26.7414 3.81669 26.8225 3.78318C26.9036 3.74967 26.9771 3.7009 27.0388 3.63965C27.1006 3.5784 27.1494 3.50588 27.1824 3.42622C27.2155 3.34655 27.2322 3.26132 27.2315 3.17537V2.73565C27.2322 2.6497 27.2155 2.56447 27.1824 2.4848C27.1494 2.40514 27.1006 2.33262 27.0388 2.27137C26.9771 2.21012 26.9036 2.16135 26.8225 2.12784C26.7414 2.09433 26.6544 2.07674 26.5664 2.07607" fill="white"/>
</svg>
