<svg width="24" height="22" viewBox="0 0 24 22" fill="none" xmlns="http://www.w3.org/2000/svg">
    <path d="M23.0506 16.6262C22.9416 16.6298 22.8345 16.6551 22.7359 16.7005C22.6373 16.7458 22.5492 16.8104 22.4772 16.8901C22.1541 17.2111 21.7998 17.5008 21.4193 17.7554C20.9748 18.0798 20.4858 18.3913 20.0058 18.6812C19.576 18.9456 19.1308 19.1854 18.6723 19.3994C18.4114 19.5405 18.1244 19.6302 17.8278 19.6633C17.9001 19.4914 17.991 19.3276 18.0989 19.1744C18.3434 18.811 18.6412 18.387 18.9879 17.9154L20.1525 16.3752C20.5703 15.8301 20.9615 15.2893 21.3259 14.7701C21.6572 14.2892 21.9586 13.7893 22.2283 13.2732C22.4632 12.8763 22.6015 12.4323 22.6327 11.9753C22.6449 11.8127 22.6096 11.6501 22.531 11.5062C22.4523 11.3623 22.3335 11.243 22.1883 11.1619C21.9258 11.0322 21.6333 10.971 21.3393 10.9845C20.8344 11.0025 20.3398 11.128 19.8902 11.3523C19.3347 11.6116 18.7998 11.9109 18.2901 12.2478C17.7344 12.6113 17.1655 13.0266 16.601 13.4765C16.0365 13.9265 15.5031 14.3678 14.9875 14.8177L15.0986 14.649C15.3786 14.2164 15.6364 13.8053 15.8676 13.4073C16.0837 13.0353 16.2767 12.651 16.4454 12.2565C16.6022 11.9405 16.6957 11.5984 16.721 11.2484C16.7311 11.0802 16.6923 10.9126 16.6089 10.7649C16.5256 10.6172 16.4011 10.4954 16.2498 10.4134C15.9737 10.2812 15.6684 10.2173 15.3609 10.2274C14.6029 10.294 13.8755 10.5503 13.2495 10.9716L13.1295 11.0408C13.3998 10.1491 13.5317 9.22312 13.5207 8.29351C13.5207 6.06973 12.8984 4.30456 11.6671 3.0499C11.029 2.41331 10.2602 1.91477 9.41084 1.58677C8.56149 1.25877 7.65065 1.10868 6.7377 1.14628C5.7145 1.1336 4.69946 1.32501 3.75516 1.70872C3.06857 2.00356 2.45023 2.4303 1.93719 2.96338C1.39401 3.51881 0.953419 4.16134 0.634825 4.86267C0.183528 5.98036 -0.0311586 7.17527 0.00364585 8.37571C0.00364585 10.5389 0.62149 12.2695 1.8394 13.5414C3.05731 14.8134 4.72415 15.4277 6.78215 15.4277C7.03996 15.4277 9.59134 15.8171 13.3073 12.793C13.2673 12.8838 13.2095 12.992 13.1384 13.1218C12.9073 13.5544 11.0226 16.717 10.9159 16.9204C10.8818 16.9858 10.8578 17.0558 10.8448 17.128C10.8346 17.2186 10.8346 17.31 10.8448 17.4006C10.8622 17.5728 10.9176 17.7393 11.0074 17.8887C11.0972 18.0381 11.2191 18.1667 11.3649 18.2659C11.6632 18.5225 12.0468 18.6654 12.445 18.6682C12.6152 18.6567 12.7813 18.6126 12.9339 18.5383C13.0864 18.4641 13.2224 18.3612 13.334 18.2356C15.592 16.2454 16.2321 15.8388 17.0944 15.1682C17.6633 14.7355 18.1478 14.4413 18.5834 14.1471L17.6722 15.2763C17.2988 15.7436 16.9255 16.2152 16.561 16.6738C16.1965 17.1324 15.9787 17.4871 15.6409 17.9717C15.3268 18.4144 15.0432 18.8769 14.7919 19.3561C14.5767 19.729 14.4521 20.1449 14.4274 20.5718C14.4198 20.7974 14.4764 21.0206 14.5909 21.2168C14.7054 21.413 14.8734 21.5746 15.0764 21.6837C15.4634 21.898 15.9025 22.007 16.3476 21.9996C17.0919 21.9747 17.8203 21.7837 18.4767 21.4415C19.1595 21.1398 19.8139 20.7808 20.4325 20.3685C21.1037 19.8969 21.7215 19.4253 22.2594 18.9667C22.7972 18.5082 23.1172 18.1707 23.3528 17.9457C23.4517 17.8558 23.5311 17.7474 23.586 17.6269C23.641 17.5065 23.6705 17.3766 23.6729 17.2448C23.6786 17.1633 23.6665 17.0814 23.6375 17.0047C23.6084 16.928 23.563 16.8581 23.5042 16.7997C23.4455 16.7413 23.3747 16.6956 23.2965 16.6657C23.2183 16.6358 23.1345 16.6223 23.0506 16.6262ZM9.2402 11.547C8.93832 11.8948 8.55974 12.1719 8.13263 12.3577C7.70552 12.5435 7.24088 12.6331 6.77326 12.6199C6.30334 12.6326 5.83649 12.5424 5.40719 12.356C4.97789 12.1695 4.59712 11.8916 4.293 11.5426C3.63959 10.8158 3.30622 9.71689 3.30622 8.28485C3.30622 6.85281 3.6307 5.73228 4.26633 5.01842C4.57674 4.67034 4.96366 4.39472 5.3984 4.21198C5.83314 4.02924 6.30455 3.94407 6.77771 3.96277C7.24692 3.94142 7.715 4.02374 8.14686 4.20357C8.57872 4.38339 8.96315 4.65606 9.27131 5.00111C9.89804 5.70199 10.2136 6.79224 10.2136 8.24592C10.2136 9.69959 9.88471 10.8158 9.2402 11.547Z" fill="white"/>
    <path d="M22.5303 1.75667H21.3391V0.558259C21.3397 0.484067 21.325 0.410511 21.2958 0.341959C21.2667 0.273407 21.2236 0.211256 21.1693 0.159198C21.115 0.10714 21.0505 0.0662355 20.9796 0.038914C20.9088 0.0115926 20.833 -0.0015888 20.7568 0.000152557H20.379C20.2284 0.00242437 20.0849 0.0622261 19.9792 0.166646C19.8736 0.271066 19.8144 0.411727 19.8145 0.558259V1.75667H18.6143C18.5396 1.75724 18.4657 1.77212 18.3969 1.80048C18.3281 1.82883 18.2657 1.8701 18.2133 1.92193C18.1609 1.97375 18.1195 2.03512 18.0914 2.10253C18.0634 2.16993 18.0492 2.24206 18.0498 2.31478V2.68685C18.0492 2.75958 18.0634 2.8317 18.0914 2.89911C18.1195 2.96651 18.1609 3.02788 18.2133 3.0797C18.2657 3.13153 18.3281 3.1728 18.3969 3.20115C18.4657 3.22951 18.5396 3.24439 18.6143 3.24496H19.8189V4.44337C19.8189 4.58991 19.8781 4.73057 19.9837 4.83499C20.0893 4.93941 20.2329 4.99921 20.3834 5.00148H20.7612C20.8371 5.00264 20.9124 4.98902 20.9827 4.96144C21.0531 4.93385 21.117 4.89286 21.1709 4.84086C21.2247 4.78886 21.2673 4.72691 21.2962 4.65865C21.3251 4.59039 21.3397 4.51719 21.3391 4.44337V3.24496H22.5481C22.6228 3.24439 22.6967 3.22951 22.7655 3.20115C22.8343 3.1728 22.8967 3.13153 22.9491 3.0797C23.0015 3.02788 23.0429 2.96651 23.071 2.89911C23.099 2.8317 23.1132 2.75958 23.1126 2.68685V2.31478C23.1132 2.24206 23.099 2.16993 23.071 2.10253C23.0429 2.03512 23.0015 1.97375 22.9491 1.92193C22.8967 1.8701 22.8343 1.82883 22.7655 1.80048C22.6967 1.77212 22.6228 1.75724 22.5481 1.75667" fill="white"/>
</svg>
