<svg width="118" height="37" viewBox="0 0 118 37" fill="none" xmlns="http://www.w3.org/2000/svg">
    <path d="M39.5633 27.9625C39.3762 27.9686 39.1924 28.0111 39.0231 28.0874C38.8539 28.1638 38.7028 28.2723 38.5791 28.4063C38.0245 28.9462 37.4165 29.4335 36.7634 29.8615C36.0005 30.4072 35.1613 30.9311 34.3373 31.4186C33.5996 31.8632 32.8354 32.2665 32.0486 32.6264C31.6007 32.8638 31.1081 33.0146 30.599 33.0703C30.7232 32.7812 30.8792 32.5056 31.0644 32.2481C31.484 31.6369 31.9952 30.9238 32.5903 30.1308L34.5891 27.5405C35.3062 26.6237 35.9776 25.7142 36.6032 24.8411C37.1718 24.0323 37.689 23.1916 38.1519 22.3236C38.5551 21.6561 38.7926 20.9094 38.8461 20.1408C38.867 19.8674 38.8064 19.594 38.6714 19.3519C38.5365 19.1099 38.3326 18.9092 38.0832 18.7729C37.6328 18.5547 37.1307 18.4519 36.6261 18.4746C35.7596 18.5048 34.9106 18.7159 34.139 19.093C33.1854 19.5291 32.2674 20.0326 31.3925 20.5992C30.4388 21.2104 29.4623 21.9089 28.4934 22.6656C27.5245 23.4223 26.609 24.1644 25.724 24.9211L25.9148 24.6374C26.3954 23.9098 26.8379 23.2185 27.2346 22.5491C27.6056 21.9236 27.9368 21.2773 28.2264 20.6137C28.4954 20.0824 28.656 19.507 28.6994 18.9184C28.7168 18.6355 28.6501 18.3536 28.5071 18.1052C28.364 17.8568 28.1504 17.6519 27.8907 17.5141C27.4168 17.2918 26.8927 17.1843 26.3649 17.2013C25.0639 17.3132 23.8155 17.7443 22.7411 18.4527L22.5351 18.5692C22.999 17.0696 23.2253 15.5123 23.2064 13.9489C23.2064 10.209 22.1383 7.24039 20.0251 5.13034C18.9298 4.05975 17.6103 3.22131 16.1525 2.66969C14.6947 2.11807 13.1313 1.86565 11.5644 1.92889C9.80819 1.90756 8.06601 2.22947 6.44524 2.87477C5.26681 3.37062 4.20549 4.08832 3.32493 4.98482C2.39263 5.91893 1.63642 6.99952 1.08959 8.179C0.315001 10.0587 -0.0534797 12.0683 0.00625762 14.0871C0.00625762 17.7251 1.06671 20.6355 3.15709 22.7747C5.24747 24.9138 8.10839 25.947 11.6407 25.947C12.0832 25.947 16.4623 26.6019 22.8402 21.5159C22.7716 21.6687 22.6724 21.8506 22.5503 22.0689C22.1536 22.7965 18.9189 28.1153 18.7358 28.4573C18.6771 28.5673 18.636 28.685 18.6137 28.8065C18.5962 28.9589 18.5962 29.1126 18.6137 29.2649C18.6435 29.5546 18.7387 29.8346 18.8928 30.0858C19.0469 30.337 19.2562 30.5534 19.5063 30.7201C20.0183 31.1517 20.6768 31.3921 21.3602 31.3968C21.6523 31.3775 21.9374 31.3032 22.1993 31.1783C22.4612 31.0535 22.6945 30.8804 22.886 30.6692C26.7616 27.3222 27.8602 26.6383 29.3402 25.5105C30.3168 24.7829 31.1483 24.2881 31.896 23.7933L30.332 25.6924C29.6912 26.4782 29.0503 27.2713 28.4247 28.0425C27.7992 28.8138 27.4253 29.4104 26.8455 30.2253C26.3064 30.9699 25.8196 31.7477 25.3884 32.5537C25.019 33.1808 24.8051 33.8801 24.7628 34.5982C24.7497 34.9776 24.8468 35.3529 25.0434 35.6829C25.2399 36.0129 25.5283 36.2847 25.8766 36.4682C26.5409 36.8285 27.2945 37.0119 28.0586 36.9993C29.336 36.9574 30.5862 36.6363 31.7129 36.0607C32.8847 35.5535 34.0079 34.9497 35.0697 34.2563C36.2217 33.4632 37.2822 32.6701 38.2053 31.8988C39.1284 31.1276 39.6777 30.56 40.0821 30.1817C40.2518 30.0304 40.388 29.8481 40.4823 29.6456C40.5767 29.4431 40.6274 29.2245 40.6313 29.003C40.6412 28.8658 40.6205 28.7282 40.5706 28.5991C40.5207 28.4701 40.4428 28.3526 40.3419 28.2543C40.2411 28.1561 40.1195 28.0793 39.9853 28.029C39.8511 27.9787 39.7073 27.956 39.5633 27.9625ZM15.8596 19.4205C15.3414 20.0055 14.6917 20.4715 13.9586 20.7839C13.2255 21.0963 12.428 21.2471 11.6254 21.2249C10.8189 21.2463 10.0176 21.0946 9.28073 20.781C8.54389 20.4674 7.89035 20 7.36836 19.4132C6.24688 18.1908 5.6747 16.3427 5.6747 13.9343C5.6747 11.526 6.23162 9.64148 7.32259 8.44093C7.85538 7.85554 8.51947 7.39201 9.26564 7.08468C10.0118 6.77736 10.8209 6.63412 11.633 6.66558C12.4384 6.62967 13.2418 6.76811 13.983 7.07054C14.7242 7.37297 15.3841 7.83153 15.913 8.41183C16.9887 9.59054 17.5304 11.4241 17.5304 13.8688C17.5304 16.3136 16.9658 18.1908 15.8596 19.4205Z" fill="#73CDFE"/>
    <path d="M60.3374 22.4034C60.3142 22.318 60.2567 22.2448 60.1772 22.1997C60.126 22.172 60.0683 22.1569 60.0094 22.1561H59.9102C59.78 22.1932 59.6475 22.2224 59.5135 22.2434L59.071 22.3016L58.6743 22.3525H58.3691C58.0605 22.3614 57.7534 22.3068 57.4689 22.1924C57.2592 22.1093 57.0791 21.9704 56.9501 21.7922C56.8037 21.5865 56.7049 21.3533 56.6602 21.1083C56.5937 20.7848 56.5631 20.4556 56.5686 20.126C56.5275 19.5105 56.6874 18.8978 57.0264 18.3725C57.1824 18.1851 57.3844 18.0372 57.6146 17.942C57.8449 17.8468 58.0961 17.8073 58.3462 17.8268C58.5631 17.8288 58.7797 17.8434 58.9947 17.8705C59.2386 17.9016 59.4788 17.9553 59.7118 18.0305H59.8186C59.8744 18.0313 59.9294 18.0188 59.9788 17.9942C60.0212 17.9709 60.058 17.9395 60.0869 17.9019C60.1158 17.8643 60.1362 17.8214 60.1467 17.7759L60.345 16.9682C60.3652 16.8883 60.3538 16.804 60.313 16.7315C60.2722 16.6591 60.2049 16.6035 60.1238 16.5753C59.8443 16.4868 59.5588 16.4163 59.2693 16.3643C58.9215 16.3084 58.5692 16.2817 58.2165 16.2843C57.5996 16.2805 56.9932 16.4364 56.4618 16.7354C56.0235 16.9686 55.6496 17.2978 55.3709 17.6958C55.1177 18.0696 54.9369 18.4836 54.8368 18.9182C54.6211 19.8063 54.6211 20.7296 54.8368 21.6176C54.9392 22.0545 55.1367 22.466 55.4166 22.8254C55.7008 23.182 56.0765 23.4627 56.5076 23.6404C57.0221 23.8435 57.576 23.9402 58.1326 23.9241C58.3081 23.9241 58.4988 23.9241 58.6895 23.9241C58.8802 23.9241 59.0786 23.8805 59.2693 23.8514C59.4517 23.8236 59.6325 23.7872 59.811 23.7422C59.9829 23.7045 60.1513 23.6534 60.3145 23.5894C60.3918 23.56 60.4549 23.5043 60.4916 23.433C60.5282 23.3618 60.5358 23.2801 60.5129 23.2038L60.3374 22.4034Z" fill="#73CDFE"/>
    <path d="M72.6826 22.3662H69.4326V16.7346C69.4337 16.6919 69.4257 16.6495 69.4093 16.6098C69.3929 16.5702 69.3683 16.534 69.3371 16.5035C69.3058 16.473 69.2684 16.4488 69.2272 16.4322C69.186 16.4157 69.1417 16.4072 69.097 16.4072H67.9068C67.8621 16.4072 67.8178 16.4157 67.7766 16.4322C67.7353 16.4488 67.698 16.473 67.6667 16.5035C67.6354 16.534 67.6109 16.5702 67.5945 16.6098C67.578 16.6495 67.5701 16.6919 67.5711 16.7346V23.5013C67.5701 23.5443 67.578 23.5871 67.5943 23.6272C67.6106 23.6672 67.6351 23.7039 67.6663 23.735C67.6974 23.766 67.7347 23.791 67.776 23.8083C67.8173 23.8256 67.8617 23.835 67.9068 23.836H72.6598C72.7048 23.835 72.7493 23.8256 72.7906 23.8083C72.8318 23.791 72.8691 23.766 72.9003 23.735C72.9315 23.7039 72.9559 23.6672 72.9722 23.6272C72.9886 23.5871 72.9964 23.5443 72.9954 23.5013V22.7009C72.9977 22.6177 72.9666 22.5367 72.9085 22.4745C72.8504 22.4123 72.7696 22.3736 72.6826 22.3662Z" fill="#73CDFE"/>
    <path d="M81.3395 16.437H80.2028C80.1117 16.437 80.0244 16.4714 79.96 16.5329C79.8956 16.5943 79.8595 16.6775 79.8595 16.7644V23.502C79.8584 23.5456 79.8666 23.5889 79.8834 23.6295C79.9002 23.6701 79.9253 23.707 79.9573 23.7382C79.9893 23.7694 80.0274 23.7942 80.0696 23.8111C80.1118 23.828 80.157 23.8367 80.2028 23.8367H81.3395C81.3846 23.8357 81.429 23.8263 81.4703 23.809C81.5116 23.7917 81.5489 23.7667 81.5801 23.7357C81.6112 23.7046 81.6357 23.6679 81.652 23.6278C81.6683 23.5877 81.6762 23.545 81.6752 23.502V16.7353C81.6677 16.6548 81.6292 16.5798 81.5673 16.5248C81.5053 16.4697 81.4242 16.4384 81.3395 16.437Z" fill="#73CDFE"/>
    <path d="M95.1581 16.4443H94.0595C93.9685 16.4443 93.8812 16.4788 93.8168 16.5402C93.7524 16.6016 93.7162 16.6849 93.7162 16.7717V20.759L93.3271 20.1623C92.9381 19.5584 92.5642 18.9618 92.1599 18.3724C91.7555 17.7831 91.397 17.1864 90.9698 16.5898C90.9399 16.546 90.8993 16.5099 90.8514 16.4845C90.8035 16.4591 90.7499 16.4453 90.6951 16.4443H89.5355C89.4458 16.4462 89.3604 16.4815 89.2976 16.5427C89.2349 16.6039 89.1998 16.6861 89.1998 16.7717V23.502C89.1988 23.545 89.2067 23.5878 89.223 23.6279C89.2393 23.668 89.2638 23.7046 89.2949 23.7357C89.3261 23.7668 89.3634 23.7917 89.4047 23.809C89.4459 23.8264 89.4904 23.8358 89.5355 23.8367H90.6341C90.6795 23.8368 90.7244 23.828 90.7662 23.811C90.8079 23.794 90.8456 23.7691 90.877 23.7379C90.9084 23.7066 90.9328 23.6695 90.9487 23.629C90.9647 23.5885 90.9718 23.5453 90.9698 23.502V19.4493L91.2063 19.8204C91.6335 20.4606 92.0455 21.1082 92.4651 21.7558C92.8847 22.4033 93.3043 23.0509 93.7315 23.6912C93.7621 23.736 93.8039 23.7728 93.8532 23.7982C93.9025 23.8236 93.9577 23.8369 94.0138 23.8367H95.1505C95.1956 23.8358 95.24 23.8264 95.2813 23.809C95.3226 23.7917 95.3599 23.7668 95.3911 23.7357C95.4222 23.7046 95.4467 23.668 95.463 23.6279C95.4793 23.5878 95.4872 23.545 95.4862 23.502V16.7717C95.4863 16.6873 95.4522 16.6062 95.3911 16.5452C95.33 16.4842 95.2465 16.448 95.1581 16.4443Z" fill="#73CDFE"/>
    <path d="M104.487 16.4364H103.358C103.27 16.4323 103.183 16.461 103.116 16.5167C103.049 16.5723 103.007 16.6504 103 16.7347V23.5014C102.999 23.545 103.007 23.5883 103.024 23.6289C103.04 23.6695 103.065 23.7064 103.097 23.7376C103.129 23.7688 103.168 23.7936 103.21 23.8105C103.252 23.8274 103.297 23.8361 103.343 23.8361H104.472C104.517 23.8351 104.562 23.8257 104.603 23.8084C104.644 23.7911 104.681 23.7661 104.713 23.7351C104.744 23.704 104.768 23.6673 104.785 23.6272C104.801 23.5871 104.809 23.5444 104.808 23.5014V16.7347C104.801 16.6566 104.764 16.5836 104.705 16.5288C104.647 16.4741 104.569 16.4413 104.487 16.4364Z" fill="#73CDFE"/>
    <path d="M117.991 23.1815L117.785 22.4029C117.774 22.3602 117.755 22.3199 117.727 22.2848C117.7 22.2497 117.665 22.2206 117.624 22.1992C117.575 22.1726 117.521 22.1576 117.464 22.1556H117.365C117.232 22.1926 117.097 22.2217 116.961 22.2429L116.518 22.3011C116.381 22.3011 116.244 22.3375 116.121 22.352H115.816C115.508 22.3623 115.2 22.3076 114.916 22.1919C114.707 22.1074 114.528 21.9688 114.397 21.7918C114.251 21.5861 114.152 21.3529 114.107 21.1078C114.04 20.7844 114.01 20.4551 114.016 20.1255C113.975 19.51 114.135 18.8973 114.474 18.372C114.629 18.1856 114.83 18.0384 115.058 17.9433C115.287 17.8482 115.537 17.808 115.786 17.8263C116.003 17.8285 116.219 17.8431 116.434 17.87C116.676 17.9011 116.913 17.9547 117.144 18.03H117.251C117.306 18.0311 117.362 18.0186 117.411 17.9937C117.452 17.9704 117.488 17.9388 117.516 17.9012C117.544 17.8635 117.562 17.8206 117.571 17.7754L117.777 16.9677C117.799 16.8877 117.788 16.8027 117.747 16.7298C117.706 16.6569 117.638 16.6016 117.556 16.5748C117.276 16.4861 116.991 16.4156 116.701 16.3638C116.351 16.3072 115.996 16.2804 115.641 16.2838C115.038 16.2629 114.44 16.3961 113.909 16.6694C113.47 16.9021 113.096 17.2314 112.818 17.6299C112.554 18.0105 112.368 18.435 112.269 18.8813C112.171 19.2945 112.12 19.7165 112.116 20.1401C112.11 20.6299 112.166 21.1186 112.284 21.5953C112.385 22.0326 112.583 22.4444 112.864 22.8031C113.148 23.1595 113.524 23.4401 113.955 23.618C114.469 23.821 115.023 23.9177 115.58 23.9018C115.755 23.9018 115.938 23.9018 116.137 23.9018L116.717 23.829C116.901 23.8015 117.085 23.765 117.266 23.7199C117.438 23.6829 117.606 23.6318 117.769 23.5671C117.85 23.5405 117.917 23.4862 117.958 23.415C117.999 23.3437 118.01 23.2605 117.991 23.1815Z" fill="#73CDFE"/>
    <path d="M38.6716 2.95426H36.627V0.938803C36.6281 0.814029 36.6028 0.690325 36.5528 0.575036C36.5028 0.459746 36.4289 0.355224 36.3357 0.267674C36.2425 0.180124 36.1318 0.111332 36.0101 0.0653835C35.8885 0.0194351 35.7584 -0.00273303 35.6276 0.00019553H34.9791C34.7208 0.0040162 34.4744 0.104589 34.2931 0.2802C34.1118 0.45581 34.0102 0.69237 34.0102 0.938803V2.95426H31.9504C31.8221 2.95521 31.6953 2.98025 31.5772 3.02793C31.4592 3.07562 31.3521 3.14502 31.2621 3.23218C31.1721 3.31934 31.101 3.42254 31.0529 3.53591C31.0047 3.64927 30.9805 3.77056 30.9815 3.89287V4.51861C30.9805 4.64091 31.0047 4.76221 31.0529 4.87557C31.101 4.98893 31.1721 5.09214 31.2621 5.1793C31.3521 5.26646 31.4592 5.33586 31.5772 5.38355C31.6953 5.43123 31.8221 5.45626 31.9504 5.45722H34.0179V7.47268C34.0178 7.71911 34.1194 7.95567 34.3007 8.13128C34.482 8.30689 34.7284 8.40746 34.9868 8.41128H35.6352C35.7654 8.41323 35.8947 8.39033 36.0154 8.34394C36.1362 8.29755 36.246 8.2286 36.3384 8.14115C36.4308 8.0537 36.5039 7.94952 36.5535 7.83472C36.6031 7.71992 36.6281 7.59683 36.627 7.47268V5.45722H38.7022C38.8304 5.45626 38.9572 5.43123 39.0753 5.38355C39.1934 5.33586 39.3005 5.26646 39.3904 5.1793C39.4804 5.09214 39.5515 4.98893 39.5996 4.87557C39.6478 4.76221 39.6721 4.64091 39.6711 4.51861V3.89287C39.6721 3.77056 39.6478 3.64927 39.5996 3.53591C39.5515 3.42254 39.4804 3.31934 39.3904 3.23218C39.3005 3.14502 39.1934 3.07562 39.0753 3.02793C38.9572 2.98025 38.8304 2.95521 38.7022 2.95426" fill="#73CDFE"/>
</svg>
