<svg width="22" height="16" viewBox="0 0 22 16" fill="none" xmlns="http://www.w3.org/2000/svg">
    <path fill-rule="evenodd" clip-rule="evenodd" d="M0.332764 1.33382C0.332764 0.597442 0.929717 0.000488281 1.6661 0.000488281H20.3328C21.0691 0.000488281 21.6661 0.597442 21.6661 1.33382C21.6661 2.0702 21.0691 2.66715 20.3328 2.66715H1.6661C0.929717 2.66715 0.332764 2.0702 0.332764 1.33382ZM0.332031 8.00106C0.332031 7.26468 0.928985 6.66772 1.66536 6.66772H20.332C21.0684 6.66772 21.6654 7.26468 21.6654 8.00106C21.6654 8.73744 21.0684 9.33439 20.332 9.33439H1.66536C0.928985 9.33439 0.332031 8.73744 0.332031 8.00106ZM1.66536 13.3342C0.928985 13.3342 0.332031 13.9312 0.332031 14.6676C0.332031 15.4039 0.928985 16.0009 1.66536 16.0009H20.332C21.0684 16.0009 21.6654 15.4039 21.6654 14.6676C21.6654 13.9312 21.0684 13.3342 20.332 13.3342H1.66536Z" fill="white"/>
</svg>
