<svg width="24" height="24" viewBox="0 0 22 22" fill="none" xmlns="http://www.w3.org/2000/svg">
    <path fill-rule="evenodd" clip-rule="evenodd" d="M5.00004 2.01983C6.77609 0.833116 8.86416 0.199707 11.0002 0.199707C13.8645 0.199707 16.6116 1.33756 18.6369 3.36295C20.6623 5.38835 21.8002 8.13537 21.8002 10.9997C21.8002 13.1357 21.1668 15.2238 19.9801 16.9999C18.7933 18.7759 17.1066 20.1602 15.1332 20.9776C13.1597 21.795 10.9882 22.0089 8.89322 21.5922C6.79823 21.1755 4.87385 20.1469 3.36345 18.6365C1.85304 17.126 0.824439 15.2017 0.407719 13.1067C-0.0090012 11.0117 0.204875 8.84017 1.0223 6.86672C1.83973 4.89328 3.22399 3.20655 5.00004 2.01983ZM13.4002 7.39979C13.4002 8.72527 12.3257 9.79979 11.0002 9.79979C9.67476 9.79979 8.60024 8.72527 8.60024 7.39979C8.60024 6.07431 9.67476 4.99979 11.0002 4.99979C12.3257 4.99979 13.4002 6.07431 13.4002 7.39979ZM10.9831 10.9999C9.55412 10.9988 8.17052 11.4796 7.07607 12.3576C5.98161 13.2357 5.24652 14.4546 5.00028 15.7998H17.0003C16.753 14.4491 16.0129 13.2258 14.9114 12.347C13.8098 11.4683 12.418 10.991 10.9831 10.9999Z" fill="white"/>
</svg>
