<svg width="32" height="32" viewBox="0 0 32 32" fill="none" xmlns="http://www.w3.org/2000/svg">
    <circle opacity="0.9" cx="16" cy="16" r="16" transform="rotate(90 16 16)" fill="white"/>
    <circle cx="16" cy="16" r="15" transform="rotate(90 16 16)" stroke="#B7B308" stroke-width="2"/>
    <path fill-rule="evenodd" clip-rule="evenodd" d="M9.37911 14.1571C8.96255 14.5737 8.96255 15.249 9.37911 15.6656C9.79567 16.0822 10.471 16.0822 10.8876 15.6656L14.9334 11.6198L14.9334 22.955C14.9334 23.5441 15.411 24.0217 16.0001 24.0217C16.5892 24.0217 17.0667 23.5441 17.0667 22.955L17.0667 11.6199L21.1124 15.6656C21.529 16.0822 22.2044 16.0822 22.6209 15.6656C23.0375 15.249 23.0375 14.5737 22.6209 14.1571L16.7543 8.29045C16.3377 7.87389 15.6623 7.87389 15.2458 8.29045L9.37911 14.1571Z" fill="#B7B308"/>
</svg>
